<svg width="304" height="250" viewBox="0 0 304 250" fill="none" xmlns="http://www.w3.org/2000/svg">
<mask id="mask0_42_144" style="mask-type:luminance" maskUnits="userSpaceOnUse" x="0" y="-211" width="344" height="732">
<path d="M306.479 99.3563C306.672 99.7079 306.864 100.059 307.041 100.411C307.49 100.664 307.956 100.926 308.406 101.18C308.149 100.828 307.876 100.485 307.603 100.133C307.233 99.8796 306.864 99.618 306.479 99.3563ZM300.441 95.5138C300.714 96.1188 300.955 96.7238 301.196 97.3288C302.063 97.7539 302.898 98.1872 303.733 98.6205C303.396 98.0319 303.043 97.4432 302.657 96.8628C301.935 96.4049 301.196 95.9553 300.441 95.5138ZM298.739 92.1536C298.932 92.497 299.125 92.8485 299.301 93.1919C299.751 93.4453 300.201 93.6988 300.65 93.9522C300.393 93.6088 300.136 93.2736 299.863 92.9303C299.494 92.6768 299.125 92.4152 298.739 92.1536ZM294.195 92.0391C294.468 92.8158 294.725 93.5925 294.95 94.3773C296.106 94.8924 297.23 95.4157 298.338 95.9389C298.001 95.1786 297.631 94.4346 297.246 93.6824C296.251 93.1346 295.239 92.5869 294.195 92.0391ZM292.702 88.311C292.975 88.9078 293.216 89.5128 293.457 90.1178C294.308 90.543 295.159 90.9763 295.994 91.4096C295.656 90.8291 295.303 90.2405 294.934 89.66C294.195 89.2022 293.457 88.7525 292.702 88.311ZM291 84.959C291.193 85.3024 291.385 85.6539 291.562 85.9973C292.012 86.2507 292.461 86.5042 292.911 86.7576C292.654 86.4143 292.397 86.0791 292.124 85.7357C291.755 85.4741 291.385 85.2124 291 84.959ZM160.73 16.4061C160.891 16.6105 161.051 16.823 161.228 17.0274L161.356 17.1255L160.955 16.545L160.73 16.4061ZM287.644 88.8261C287.869 89.7172 288.062 90.6247 288.238 91.524C289.635 92.0882 290.984 92.6523 292.317 93.2246C292.028 92.3498 291.706 91.475 291.369 90.6084C290.149 90.0116 288.913 89.4147 287.644 88.8261ZM286.456 84.8445C286.729 85.6131 286.986 86.3897 287.21 87.1746C288.367 87.6897 289.491 88.2129 290.598 88.7361C290.261 87.984 289.892 87.2318 289.507 86.4878C288.511 85.9319 287.5 85.3841 286.456 84.8445ZM284.963 81.1083C285.235 81.7051 285.476 82.3101 285.717 82.9151C286.568 83.3402 287.419 83.7735 288.254 84.2068C287.917 83.6263 287.564 83.0377 287.194 82.4572C286.456 82.0076 285.717 81.5579 284.963 81.1083ZM283.277 77.7562C283.469 78.0996 283.662 78.4512 283.839 78.7946C284.288 79.048 284.738 79.3014 285.187 79.5549C284.93 79.2115 284.673 78.8763 284.401 78.5411C284.031 78.2795 283.646 78.0179 283.277 77.7562ZM157.133 11.7214C157.438 12.1383 157.743 12.5635 158.064 12.9805C158.337 13.1603 158.626 13.3402 158.899 13.52C158.626 13.1031 158.354 12.6943 158.097 12.2774L157.133 11.7214ZM152.991 9.21148L153.488 9.83284L153.665 9.96362L153.263 9.37499L152.991 9.21148ZM280.756 85.8174C280.9 86.8067 281.029 87.8041 281.109 88.8016C282.715 89.382 284.272 89.9789 285.814 90.5675C285.605 89.5946 285.38 88.6298 285.107 87.6733C283.694 87.0519 282.233 86.4306 280.756 85.8174ZM279.905 81.6233C280.129 82.5144 280.322 83.4138 280.499 84.3213C281.896 84.8772 283.244 85.4495 284.577 86.0136C284.288 85.1389 283.983 84.2722 283.63 83.4056C282.426 82.8088 281.173 82.2119 279.905 81.6233ZM278.716 77.6418C278.989 78.4103 279.246 79.187 279.471 79.9718C280.627 80.4869 281.751 81.0102 282.859 81.5334C282.522 80.7812 282.153 80.0291 281.767 79.2851C280.788 78.7291 279.76 78.1814 278.716 77.6418ZM277.239 73.9137C277.512 74.5105 277.753 75.1155 277.994 75.7205C278.845 76.1456 279.696 76.5789 280.531 77.0122C280.194 76.4318 279.84 75.8431 279.471 75.2627C278.716 74.8048 277.978 74.3552 277.239 73.9137ZM275.537 70.5616C275.73 70.905 275.922 71.2566 276.099 71.6C276.549 71.8534 276.998 72.1068 277.448 72.3603C277.191 72.0169 276.934 71.6817 276.661 71.3465C276.292 71.0767 275.922 70.8151 275.537 70.5616ZM153.858 7.05311C154.243 7.63359 154.644 8.21405 155.046 8.8027C155.495 9.08067 155.961 9.35047 156.427 9.62845C156.073 9.04797 155.72 8.46748 155.383 7.88701C154.869 7.61721 154.355 7.33926 153.858 7.05311ZM149.394 4.51866C149.699 4.93562 150.004 5.36074 150.325 5.7777C150.614 5.96574 150.903 6.15377 151.192 6.34181C150.919 5.92486 150.646 5.50791 150.389 5.09095C150.052 4.90291 149.731 4.7067 149.394 4.51866ZM145.251 2.00871L145.749 2.63007L145.925 2.76089L145.524 2.17223L145.251 2.00871ZM273.498 82.9723C273.562 84.0433 273.594 85.1143 273.594 86.1935C275.377 86.7822 277.111 87.3708 278.813 87.9758C278.7 86.9293 278.54 85.8829 278.363 84.8445C276.773 84.2068 275.152 83.5855 273.498 82.9723ZM273.016 78.6147C273.161 79.6039 273.289 80.6014 273.369 81.5988C274.975 82.1793 276.533 82.7679 278.074 83.3647C277.865 82.3918 277.641 81.4353 277.368 80.4787C275.955 79.8492 274.509 79.2278 273.016 78.6147ZM272.165 74.4287C272.39 75.3199 272.583 76.2192 272.759 77.1267C274.14 77.6826 275.505 78.2468 276.838 78.8191C276.549 77.9443 276.244 77.0777 275.89 76.211C274.686 75.606 273.434 75.0174 272.165 74.4287ZM270.993 70.4472C271.266 71.2157 271.523 71.9924 271.748 72.7773C272.904 73.2923 274.028 73.8156 275.136 74.3388C274.798 73.5867 274.429 72.8345 274.044 72.0905C273.048 71.5346 272.021 70.9868 270.993 70.4472ZM269.5 66.7109C269.773 67.3077 270.014 67.9127 270.254 68.5177C271.105 68.9429 271.956 69.3762 272.791 69.8095C272.454 69.2208 272.101 68.6404 271.732 68.0599C270.993 67.6102 270.254 67.1606 269.5 66.7109ZM267.798 63.3671C267.99 63.7104 268.183 64.062 268.36 64.4054C268.809 64.6588 269.259 64.9123 269.708 65.1657C269.452 64.8223 269.195 64.4871 268.922 64.1519C268.552 63.8821 268.183 63.6205 267.798 63.3671ZM150.839 2.3848C151.272 3.09608 151.722 3.80737 152.172 4.51047C152.766 4.85385 153.392 5.19724 154.002 5.54062C153.601 4.82933 153.199 4.11804 152.814 3.40676C152.156 3.07156 151.497 2.72818 150.839 2.3848ZM146.118 -0.14147C146.504 0.439002 146.905 1.01947 147.306 1.60811C147.772 1.89426 148.254 2.17223 148.719 2.45837C148.366 1.8779 148.013 1.29745 147.676 0.716975C147.146 0.422651 146.632 0.144678 146.118 -0.14147ZM141.67 -2.67593C141.975 -2.25897 142.281 -1.83384 142.602 -1.41688C142.891 -1.22884 143.18 -1.04081 143.469 -0.852769C143.196 -1.26973 142.923 -1.68667 142.666 -2.10363C142.329 -2.29984 141.991 -2.48789 141.67 -2.67593ZM137.512 -5.18587L138.009 -4.56451L138.186 -4.43369L137.785 -5.02236L137.512 -5.18587ZM265.823 80.2662C265.791 81.4026 265.726 82.539 265.63 83.6918C267.589 84.2804 269.5 84.869 271.378 85.474C271.362 84.354 271.314 83.2421 271.218 82.1384C269.452 81.5007 267.653 80.8793 265.823 80.2662ZM265.758 75.7696C265.823 76.8406 265.855 77.9116 265.855 78.9908C267.637 79.5794 269.371 80.168 271.073 80.773C270.961 79.7266 270.8 78.6801 270.624 77.6418C269.034 77.0123 267.412 76.3827 265.758 75.7696ZM265.277 71.4201C265.421 72.4093 265.55 73.4068 265.63 74.4042C267.236 74.9847 268.793 75.5733 270.335 76.1702C270.126 75.1973 269.901 74.2407 269.628 73.2841C268.215 72.6546 266.77 72.0333 265.277 71.4201ZM264.426 67.226C264.65 68.1171 264.843 69.0165 265.02 69.924C266.417 70.4799 267.766 71.044 269.098 71.6163C268.809 70.7415 268.504 69.8749 268.151 69.0083C266.947 68.4114 265.71 67.8146 264.426 67.226ZM263.254 63.2444C263.526 64.0129 263.783 64.7896 264.008 65.5745C265.164 66.0896 266.288 66.6128 267.396 67.1361C267.059 66.3839 266.69 65.6317 266.304 64.8877C265.309 64.3318 264.297 63.784 263.254 63.2444ZM261.76 59.5163C262.033 60.1131 262.274 60.7181 262.515 61.3231C263.366 61.7483 264.217 62.1816 265.052 62.6149C264.715 62.0344 264.361 61.4458 263.992 60.8653C263.254 60.4156 262.515 59.966 261.76 59.5163ZM260.074 56.1643C260.267 56.5077 260.444 56.8592 260.636 57.2026C261.086 57.4561 261.535 57.7095 261.985 57.9629C261.728 57.6196 261.471 57.2844 261.198 56.9492C260.829 56.6875 260.444 56.4259 260.074 56.1643ZM148.077 -2.3162C148.543 -1.49864 149.008 -0.689255 149.49 0.128311C150.213 0.520743 150.967 0.904983 151.706 1.29742C151.272 0.471673 150.855 -0.345869 150.454 -1.17161C149.651 -1.55587 148.864 -1.94012 148.077 -2.3162ZM143.115 -4.80978C143.549 -4.0985 143.999 -3.39539 144.448 -2.68411C145.058 -2.33256 145.685 -1.98919 146.311 -1.63764C145.909 -2.34892 145.508 -3.06018 145.123 -3.77964C144.448 -4.11484 143.774 -4.4664 143.115 -4.80978ZM138.379 -7.34424C138.764 -6.76376 139.165 -6.18331 139.567 -5.60284C140.033 -5.31669 140.514 -5.03872 140.98 -4.75258C140.627 -5.33305 140.273 -5.9135 139.936 -6.49398C139.422 -6.77195 138.909 -7.05809 138.379 -7.34424ZM133.931 -9.87869C134.236 -9.46173 134.541 -9.03661 134.862 -8.61965C135.151 -8.43161 135.44 -8.24358 135.729 -8.05554C135.456 -8.47249 135.183 -8.88944 134.926 -9.3064C134.589 -9.49444 134.252 -9.68248 133.931 -9.87869ZM129.788 -12.3886L130.286 -11.7673L130.463 -11.6365L130.045 -12.2251L129.788 -12.3886ZM257.778 77.7072C257.65 78.8354 257.505 79.9718 257.312 81.1164C259.336 81.7787 261.391 82.4245 263.478 83.054C263.575 81.8767 263.623 80.7076 263.639 79.5467C261.728 78.9253 259.769 78.3122 257.778 77.7072ZM258.083 73.0634C258.051 74.1998 257.987 75.3444 257.891 76.489C259.849 77.0776 261.76 77.6663 263.639 78.2713C263.623 77.1512 263.575 76.0393 263.478 74.9356C261.712 74.3061 259.93 73.6766 258.083 73.0634ZM258.019 68.575C258.083 69.646 258.115 70.717 258.115 71.7962C259.898 72.3848 261.632 72.9735 263.334 73.5785C263.221 72.532 263.061 71.4855 262.884 70.4472C261.311 69.8095 259.689 69.1882 258.019 68.575ZM257.553 64.2173C257.698 65.2066 257.826 66.204 257.907 67.2014C259.512 67.7819 261.07 68.3706 262.611 68.9674C262.403 67.9945 262.178 67.038 261.905 66.0814C260.492 65.4519 259.031 64.8305 257.553 64.2173ZM256.702 60.0314C256.927 60.9226 257.12 61.8219 257.296 62.7294C258.693 63.2853 260.042 63.8494 261.375 64.4217C261.086 63.5469 260.781 62.6803 260.428 61.8137C259.207 61.2169 257.971 60.6201 256.702 60.0314ZM255.514 56.0498C255.787 56.8265 256.044 57.595 256.269 58.3799C257.425 58.895 258.549 59.4182 259.657 59.9415C259.32 59.1893 258.95 58.4371 258.565 57.6932C257.569 57.1372 256.558 56.5894 255.514 56.0498ZM254.021 52.3217C254.294 52.9186 254.535 53.5236 254.775 54.1286C255.626 54.5537 256.478 54.987 257.312 55.4203C256.975 54.8398 256.622 54.2512 256.253 53.6707C255.514 53.2129 254.775 52.7632 254.021 52.3217ZM252.335 48.9615C252.527 49.3049 252.72 49.6565 252.897 49.9999C253.346 50.2533 253.796 50.5067 254.246 50.7602C253.989 50.4168 253.732 50.0816 253.459 49.7464C253.089 49.4848 252.72 49.2232 252.335 48.9615ZM145.508 -7.08264C145.974 -6.17514 146.455 -5.26762 146.937 -4.36012C147.772 -3.93499 148.639 -3.52622 149.49 -3.10926C149.057 -4.03311 148.623 -4.94876 148.206 -5.86443C147.306 -6.26504 146.407 -6.67386 145.508 -7.08264ZM140.338 -9.51897C140.803 -8.7014 141.269 -7.89202 141.751 -7.07446C142.489 -6.67385 143.244 -6.2896 143.999 -5.89717C143.565 -6.72291 143.148 -7.54863 142.746 -8.36619C141.927 -8.74227 141.14 -9.13471 140.338 -9.51897ZM135.376 -12.0044C135.81 -11.2931 136.259 -10.59 136.709 -9.87869C137.319 -9.52714 137.945 -9.18378 138.571 -8.83222C138.17 -9.54351 137.769 -10.2548 137.383 -10.9742C136.709 -11.3176 136.05 -11.661 135.376 -12.0044ZM130.655 -14.5388C131.041 -13.9583 131.442 -13.3779 131.844 -12.7974C132.309 -12.5113 132.791 -12.2333 133.257 -11.9553C132.903 -12.5358 132.55 -13.1163 132.213 -13.6967C131.683 -13.9665 131.169 -14.2527 130.655 -14.5388ZM126.191 -17.0733C126.497 -16.6563 126.802 -16.2312 127.123 -15.8142C127.412 -15.6262 127.701 -15.4382 127.99 -15.2501C127.717 -15.6671 127.444 -16.084 127.187 -16.501C126.85 -16.6972 126.529 -16.8852 126.191 -17.0733ZM122.049 -19.5832L122.547 -18.9619L122.723 -18.831L122.322 -19.4197L122.049 -19.5832ZM249.348 75.1155C249.156 76.1211 248.963 77.1267 248.722 78.1405C250.842 78.9172 252.993 79.6693 255.209 80.4133C255.37 79.2933 255.53 78.1732 255.626 77.0613C253.507 76.4318 251.404 75.7777 249.348 75.1155ZM250.039 70.5044C249.91 71.6326 249.766 72.7691 249.573 73.9137C251.596 74.5759 253.651 75.2218 255.739 75.8513C255.835 74.674 255.883 73.5049 255.899 72.3439C253.989 71.7226 252.046 71.1094 250.039 70.5044ZM250.344 65.8688C250.312 67.0052 250.247 68.1498 250.151 69.2944C252.11 69.8831 254.021 70.4717 255.899 71.0767C255.883 69.9566 255.835 68.8448 255.739 67.741C253.989 67.1033 252.19 66.482 250.344 65.8688ZM250.296 61.3722C250.36 62.4432 250.392 63.5142 250.392 64.5934C252.174 65.1821 253.908 65.7707 255.61 66.3757C255.498 65.3292 255.337 64.2827 255.161 63.2444C253.571 62.6149 251.949 61.9936 250.296 61.3722ZM249.814 57.0227C249.958 58.012 250.087 59.0094 250.167 60.0069C251.773 60.5873 253.33 61.176 254.872 61.7728C254.663 60.7999 254.438 59.8434 254.165 58.8868C252.752 58.2573 251.307 57.6359 249.814 57.0227ZM248.963 52.8368C249.188 53.728 249.38 54.6273 249.557 55.5348C250.954 56.0989 252.303 56.663 253.635 57.2271C253.346 56.3523 253.041 55.4857 252.688 54.6191C251.484 54.0141 250.231 53.4255 248.963 52.8368ZM247.791 48.8553C248.064 49.6238 248.321 50.4005 248.545 51.1853C249.701 51.7004 250.825 52.2236 251.933 52.7469C251.596 51.9947 251.227 51.2426 250.842 50.4986C249.846 49.9426 248.818 49.3949 247.791 48.8553ZM246.297 45.119C246.57 45.7158 246.811 46.3208 247.052 46.9258C247.903 47.3509 248.754 47.7843 249.589 48.2176C249.252 47.6289 248.899 47.0484 248.529 46.468C247.791 46.0183 247.052 45.5686 246.297 45.119ZM244.595 41.7669C244.788 42.1103 244.981 42.4619 245.157 42.8053C245.607 43.0587 246.057 43.3121 246.506 43.5656C246.249 43.2222 245.992 42.887 245.719 42.5518C245.35 42.2902 244.981 42.0286 244.595 41.7669ZM143.148 -11.9226C143.613 -10.9334 144.079 -9.94411 144.561 -8.95486C145.492 -8.51337 146.455 -8.08006 147.419 -7.64675C146.985 -8.65236 146.552 -9.65795 146.15 -10.6554C145.139 -11.0723 144.143 -11.5056 143.148 -11.9226ZM137.785 -14.2854C138.25 -13.3779 138.716 -12.4704 139.214 -11.5629C140.065 -11.1378 140.932 -10.7208 141.799 -10.2957C141.365 -11.2195 140.932 -12.1352 140.514 -13.0509C139.583 -13.4597 138.684 -13.8684 137.785 -14.2854ZM132.614 -16.7136C133.08 -15.896 133.546 -15.0866 134.027 -14.269C134.766 -13.8766 135.521 -13.4842 136.259 -13.0918C135.826 -13.9175 135.408 -14.7432 135.007 -15.5608C134.188 -15.945 133.401 -16.3293 132.614 -16.7136ZM127.637 -19.2071C128.07 -18.4958 128.52 -17.7927 128.969 -17.0815C129.579 -16.7299 130.206 -16.3865 130.832 -16.035C130.43 -16.7463 130.029 -17.4575 129.644 -18.1688C128.969 -18.5122 128.311 -18.8638 127.637 -19.2071ZM122.916 -21.7334C123.301 -21.1529 123.703 -20.5725 124.104 -19.992C124.57 -19.7059 125.051 -19.4279 125.517 -19.1417C125.164 -19.7222 124.811 -20.3027 124.473 -20.8831C123.943 -21.1693 123.43 -21.4554 122.916 -21.7334ZM118.452 -24.276C118.757 -23.8591 119.062 -23.434 119.383 -23.017C119.672 -22.829 119.961 -22.6409 120.25 -22.4529C119.977 -22.8698 119.704 -23.2868 119.448 -23.7037C119.126 -23.8918 118.789 -24.0798 118.452 -24.276ZM114.309 -26.786L114.807 -26.1646L114.984 -26.0338L114.582 -26.6225L114.309 -26.786ZM240.677 72.1477C240.453 73.0143 240.228 73.8809 239.987 74.7557C242.171 75.6551 244.403 76.5299 246.683 77.3883C246.908 76.3991 247.1 75.418 247.277 74.4369C245.045 73.6929 242.845 72.9326 240.677 72.1477ZM241.609 67.9127C241.416 68.9183 241.223 69.924 240.983 70.9377C243.102 71.7144 245.27 72.4666 247.47 73.2106C247.63 72.0905 247.791 70.9704 247.887 69.8585C245.768 69.229 243.68 68.5831 241.609 67.9127ZM242.315 63.3098C242.187 64.4381 242.042 65.5745 241.85 66.7109C243.873 67.3731 245.928 68.019 248.015 68.6485C248.112 67.4713 248.16 66.3021 248.176 65.1412C246.265 64.528 244.306 63.9148 242.315 63.3098ZM242.62 58.6661C242.588 59.8025 242.524 60.9389 242.428 62.0917C244.387 62.6803 246.297 63.269 248.176 63.874C248.16 62.7539 248.112 61.642 248.015 60.5383C246.249 59.9087 244.451 59.2874 242.62 58.6661ZM242.556 54.1776C242.62 55.2486 242.652 56.3196 242.652 57.3988C244.435 57.9875 246.169 58.5761 247.871 59.1811C247.759 58.1346 247.598 57.0882 247.421 56.0498C245.832 55.4203 244.21 54.7908 242.556 54.1776ZM242.074 49.82C242.219 50.8092 242.347 51.7985 242.428 52.8041C244.033 53.3846 245.591 53.9732 247.132 54.57C246.924 53.5971 246.699 52.6406 246.426 51.684C245.013 51.0545 243.568 50.4331 242.074 49.82ZM241.223 45.6341C241.448 46.5252 241.641 47.4245 241.818 48.332C243.214 48.888 244.563 49.4602 245.896 50.0244C245.607 49.1496 245.302 48.283 244.949 47.4163C243.744 46.8195 242.508 46.2227 241.223 45.6341ZM240.051 41.6525C240.324 42.421 240.581 43.1977 240.806 43.9826C241.962 44.4976 243.086 45.0209 244.194 45.5441C243.857 44.792 243.487 44.0398 243.102 43.2958C242.107 42.7399 241.095 42.1921 240.051 41.6525ZM238.558 37.9244C238.831 38.5212 239.072 39.1262 239.313 39.7312C240.164 40.1563 241.015 40.5897 241.85 41.023C241.512 40.4425 241.159 39.8538 240.79 39.2734C240.051 38.8155 239.313 38.3659 238.558 37.9244ZM236.872 34.5724C237.065 34.9157 237.241 35.2673 237.434 35.6107C237.884 35.8641 238.333 36.1176 238.783 36.371C238.526 36.0276 238.269 35.6924 237.996 35.3572C237.627 35.0956 237.241 34.834 236.872 34.5724ZM140.964 -16.8526C141.413 -15.7979 141.863 -14.7351 142.345 -13.664C143.372 -13.2144 144.432 -12.7729 145.476 -12.3314C145.042 -13.4106 144.641 -14.4898 144.256 -15.5608C143.148 -15.9859 142.072 -16.4192 140.964 -16.8526ZM135.408 -19.1254C135.874 -18.1361 136.339 -17.1469 136.821 -16.1576C137.769 -15.7161 138.732 -15.2746 139.695 -14.8413C139.262 -15.8469 138.828 -16.8525 138.427 -17.85C137.415 -18.2669 136.42 -18.7002 135.408 -19.1254ZM130.045 -21.4799C130.511 -20.5725 130.992 -19.665 131.474 -18.7575C132.325 -18.3323 133.192 -17.9154 134.043 -17.4984C133.61 -18.4223 133.176 -19.3379 132.759 -20.2536C131.844 -20.6542 130.944 -21.0712 130.045 -21.4799ZM124.875 -23.9081C125.34 -23.0906 125.806 -22.2812 126.288 -21.4636C127.026 -21.0712 127.781 -20.6788 128.52 -20.2863C128.086 -21.1121 127.669 -21.9378 127.267 -22.7554C126.448 -23.1396 125.662 -23.5239 124.875 -23.9081ZM119.913 -26.4017C120.347 -25.6904 120.796 -24.9791 121.246 -24.276C121.856 -23.9245 122.482 -23.5811 123.109 -23.2296C122.707 -23.9409 122.306 -24.6521 121.92 -25.3634C121.23 -25.7149 120.572 -26.0583 119.913 -26.4017ZM115.176 -28.9362C115.562 -28.3557 115.963 -27.7752 116.365 -27.1866C116.83 -26.9004 117.312 -26.6225 117.778 -26.3363C117.424 -26.9168 117.071 -27.4973 116.734 -28.0777C116.22 -28.3639 115.69 -28.65 115.176 -28.9362ZM110.729 -31.4706C111.034 -31.0537 111.339 -30.6285 111.66 -30.2116C111.949 -30.0235 112.238 -29.8355 112.527 -29.6475C112.254 -30.0644 111.981 -30.4814 111.724 -30.8983C111.387 -31.0864 111.05 -31.2744 110.729 -31.4706ZM106.586 -33.9806L107.084 -33.3592L107.26 -33.2284L106.843 -33.8171L106.586 -33.9806ZM64.6773 477.505C61.0484 472.526 57.6283 467.466 54.4811 462.331C25.9801 415.992 17.9998 364.092 47.5124 320.451C71.1001 285.573 106.795 249.551 141.606 214.437C190.13 165.481 236.888 118.291 246.426 78.6147C244.114 77.7562 241.85 76.8814 239.634 75.9821C227.752 114.89 182.567 160.486 135.745 207.725C100.95 242.823 65.2714 278.828 41.748 313.6C12.3959 357.004 20.3762 408.666 48.7488 454.81C53.5017 462.552 58.8486 470.139 64.6773 477.505ZM231.878 68.7794C231.653 69.4988 231.429 70.2183 231.188 70.9459C233.404 71.9679 235.684 72.9653 238.012 73.9464C238.253 73.0961 238.462 72.254 238.654 71.4119C236.358 70.5535 234.094 69.6787 231.878 68.7794ZM232.954 64.9531C232.745 65.8198 232.504 66.6864 232.264 67.5612C234.447 68.4605 236.679 69.3353 238.959 70.1937C239.184 69.2045 239.377 68.2234 239.553 67.2423C237.306 66.4983 235.106 65.7298 232.954 64.9531ZM233.885 60.7182C233.693 61.7238 233.5 62.7294 233.259 63.7432C235.379 64.5198 237.53 65.2802 239.746 66.016C239.923 64.8959 240.067 63.7758 240.164 62.6639C238.028 62.0344 235.941 61.3804 233.885 60.7182ZM234.576 56.1071C234.447 57.2353 234.303 58.3717 234.11 59.5163C236.133 60.1785 238.189 60.8244 240.276 61.454C240.372 60.2767 240.421 59.1076 240.437 57.9466C238.526 57.3253 236.567 56.7121 234.576 56.1071ZM234.881 51.4715C234.849 52.6079 234.785 53.7525 234.688 54.8971C236.647 55.4857 238.558 56.0744 240.437 56.6794C240.421 55.5593 240.372 54.4474 240.276 53.3437C238.51 52.706 236.711 52.0846 234.881 51.4715ZM234.817 46.9749C234.881 48.0459 234.913 49.1169 234.913 50.1961C236.695 50.7847 238.429 51.3734 240.132 51.9784C240.019 50.9319 239.859 49.8854 239.682 48.8471C238.108 48.2176 236.487 47.5962 234.817 46.9749ZM234.351 42.6254C234.496 43.6146 234.624 44.6121 234.704 45.6095C236.31 46.19 237.868 46.7786 239.409 47.3755C239.2 46.4026 238.975 45.446 238.702 44.4895C237.273 43.8599 235.828 43.2386 234.351 42.6254ZM233.5 38.4395C233.725 39.3306 233.917 40.2299 234.094 41.1374C235.491 41.6934 236.84 42.2575 238.173 42.8298C237.884 41.955 237.578 41.0884 237.225 40.2218C236.005 39.6168 234.769 39.0281 233.5 38.4395ZM232.312 34.4579C232.585 35.2346 232.842 36.0031 233.066 36.788C234.223 37.303 235.347 37.8263 236.454 38.3495C236.117 37.5974 235.748 36.8452 235.363 36.1012C234.367 35.5453 233.356 34.9975 232.312 34.4579ZM230.819 30.7298C231.091 31.3266 231.332 31.9316 231.573 32.5366C232.424 32.9618 233.275 33.3951 234.11 33.8284C233.773 33.2479 233.42 32.6593 233.05 32.0788C232.312 31.6209 231.573 31.1713 230.819 30.7298ZM229.133 27.3696C229.325 27.713 229.518 28.0645 229.695 28.4079C230.144 28.6614 230.594 28.9148 231.043 29.1683C230.786 28.8249 230.529 28.4897 230.257 28.1545C229.887 27.8928 229.502 27.6313 229.133 27.3696ZM138.989 -21.8642C139.406 -20.7442 139.856 -19.6077 140.306 -18.4713C141.43 -18.0217 142.554 -17.572 143.71 -17.1305C143.308 -18.2833 142.923 -19.4279 142.553 -20.5643C141.333 -20.9894 140.161 -21.4309 138.989 -21.8642ZM133.24 -24.0471C133.69 -22.9925 134.14 -21.9296 134.621 -20.8586C135.665 -20.409 136.725 -19.9593 137.785 -19.5178C137.351 -20.597 136.95 -21.6762 136.564 -22.7472C135.424 -23.1805 134.332 -23.6138 133.24 -24.0471ZM127.685 -26.32C128.15 -25.3307 128.616 -24.3415 129.098 -23.3522C130.045 -22.9107 131.009 -22.4774 131.972 -22.0359C131.538 -23.0415 131.105 -24.0471 130.703 -25.0445C129.676 -25.4615 128.68 -25.8948 127.685 -26.32ZM122.306 -28.6745C122.771 -27.767 123.237 -26.8596 123.735 -25.9521C124.586 -25.5269 125.453 -25.11 126.304 -24.693C125.87 -25.6169 125.437 -26.5325 125.019 -27.4482C124.12 -27.857 123.221 -28.2657 122.306 -28.6745ZM117.135 -31.1109C117.601 -30.2933 118.067 -29.484 118.548 -28.6664C119.287 -28.274 120.042 -27.8815 120.78 -27.4891C120.347 -28.3148 119.929 -29.1406 119.528 -29.9581C118.725 -30.3342 117.922 -30.7266 117.135 -31.1109ZM112.174 -33.6045C112.607 -32.8932 113.057 -32.1901 113.506 -31.4788C114.117 -31.1273 114.743 -30.7839 115.369 -30.4323C114.968 -31.1436 114.566 -31.8549 114.181 -32.5743C113.506 -32.9095 112.832 -33.2529 112.174 -33.6045ZM107.453 -36.1308C107.838 -35.5503 108.24 -34.9698 108.641 -34.3894C109.107 -34.1032 109.589 -33.8252 110.054 -33.5391C109.701 -34.1195 109.348 -34.7 109.011 -35.2805C108.481 -35.5666 107.967 -35.8446 107.453 -36.1308ZM102.989 -38.6652C103.294 -38.2482 103.599 -37.8231 103.92 -37.4062C104.21 -37.2181 104.499 -37.0301 104.788 -36.8421C104.515 -37.259 104.242 -37.676 103.985 -38.0929C103.648 -38.2891 103.31 -38.4772 102.989 -38.6652ZM98.8465 -41.1752L99.3443 -40.5538L99.5209 -40.423L99.1034 -41.0116L98.8465 -41.1752ZM56.9218 470.294C53.2929 465.323 49.8888 460.263 46.7417 455.137C18.2406 408.797 10.2603 356.898 39.773 313.256C63.3606 278.379 99.0552 242.357 133.867 207.242C180.865 159.824 226.21 114.064 237.675 75.1809C235.331 74.208 233.034 73.2106 230.786 72.1886C217.395 110.336 173.479 154.665 128.022 200.53C93.2266 235.628 57.548 271.634 34.0407 306.405C4.65646 349.81 12.6367 401.472 41.0094 447.615C45.7622 455.349 51.0931 462.928 56.9218 470.294ZM223.031 64.9858C222.838 65.5499 222.646 66.1141 222.437 66.6864C224.669 67.831 226.949 68.9592 229.293 70.0629C229.518 69.368 229.727 68.6731 229.935 67.9781C227.575 67.0052 225.279 65.9996 223.031 64.9858ZM224.155 61.5848C223.93 62.3042 223.705 63.0237 223.464 63.7431C225.68 64.7651 227.96 65.7625 230.289 66.7436C230.529 65.8933 230.738 65.0512 230.931 64.2173C228.635 63.3589 226.371 62.4841 224.155 61.5848ZM225.215 57.7585C224.99 58.6252 224.765 59.4918 224.524 60.3666C226.708 61.2659 228.94 62.1407 231.22 62.9992C231.445 62.0099 231.637 61.0288 231.814 60.0477C229.566 59.2956 227.366 58.5352 225.215 57.7585ZM226.146 53.5236C225.953 54.5292 225.761 55.5348 225.52 56.5486C227.639 57.3253 229.791 58.0774 232.007 58.8214C232.167 57.7013 232.328 56.5813 232.424 55.4694C230.289 54.8317 228.201 54.1858 226.146 53.5236ZM226.836 48.9125C226.708 50.0407 226.563 51.1771 226.371 52.3136C228.394 52.9758 230.449 53.6217 232.537 54.2512C232.633 53.0739 232.681 51.9048 232.697 50.7438C230.786 50.1307 228.844 49.5175 226.836 48.9125ZM227.141 44.2687C227.109 45.4051 227.045 46.5497 226.949 47.6943C228.908 48.2829 230.819 48.8716 232.697 49.4766C232.681 48.3566 232.633 47.2446 232.537 46.1409C230.786 45.5114 228.988 44.8901 227.141 44.2687ZM227.077 39.7803C227.141 40.8513 227.174 41.9223 227.174 43.0015C228.956 43.5901 230.69 44.1788 232.392 44.7838C232.28 43.7373 232.119 42.6908 231.942 41.6525C230.369 41.023 228.747 40.3935 227.077 39.7803ZM226.612 35.4227C226.756 36.4119 226.885 37.4093 226.965 38.4068C228.571 38.9873 230.128 39.5759 231.67 40.1727C231.461 39.1998 231.236 38.2433 230.963 37.2867C229.55 36.6572 228.089 36.044 226.612 35.4227ZM225.761 31.2367C225.985 32.1279 226.178 33.0272 226.355 33.9347C227.752 34.4988 229.1 35.0629 230.433 35.6271C230.144 34.7523 229.839 33.8856 229.486 33.019C228.282 32.4222 227.029 31.8254 225.761 31.2367ZM224.572 27.2551C224.845 28.0237 225.102 28.8003 225.327 29.5852C226.483 30.1003 227.607 30.6235 228.715 31.1468C228.378 30.3946 228.009 29.6424 227.623 28.8985C226.644 28.3507 225.616 27.8029 224.572 27.2551ZM223.095 23.5271C223.368 24.1239 223.609 24.7289 223.85 25.3339C224.701 25.759 225.552 26.1923 226.387 26.6256C226.05 26.037 225.696 25.4565 225.327 24.8761C224.572 24.4182 223.834 23.9767 223.095 23.5271ZM221.393 20.1751C221.586 20.5184 221.778 20.87 221.955 21.2133C222.405 21.4668 222.854 21.7203 223.304 21.9737C223.047 21.6303 222.79 21.2951 222.517 20.9599C222.148 20.6983 221.778 20.4367 221.393 20.1751ZM137.174 -26.9658C137.56 -25.7804 137.977 -24.5867 138.411 -23.3849C139.615 -22.9352 140.835 -22.4937 142.056 -22.0522C141.67 -23.2704 141.317 -24.4804 140.98 -25.6741C139.695 -26.0992 138.443 -26.5407 137.174 -26.9658ZM131.249 -29.0588C131.667 -27.9387 132.116 -26.8023 132.566 -25.6659C133.69 -25.2081 134.83 -24.7666 135.986 -24.3169C135.585 -25.4697 135.199 -26.6143 134.83 -27.7507C133.61 -28.184 132.438 -28.6255 131.249 -29.0588ZM125.501 -31.2417C125.951 -30.1871 126.4 -29.1242 126.882 -28.0532C127.926 -27.6036 128.969 -27.1539 130.029 -26.7124C129.596 -27.7916 129.194 -28.8707 128.809 -29.9418C127.685 -30.3751 126.609 -30.8084 125.501 -31.2417ZM119.945 -33.5145C120.411 -32.5253 120.877 -31.536 121.358 -30.5468C122.306 -30.1053 123.269 -29.672 124.233 -29.2305C123.799 -30.2361 123.365 -31.2417 122.964 -32.2391C121.952 -32.6643 120.957 -33.0894 119.945 -33.5145ZM114.582 -35.8773C115.048 -34.9698 115.53 -34.0623 116.011 -33.1548C116.862 -32.7297 117.729 -32.3127 118.58 -31.8876C118.147 -32.8114 117.713 -33.7271 117.296 -34.6428C116.381 -35.0515 115.481 -35.4685 114.582 -35.8773ZM109.396 -38.3055C109.862 -37.4879 110.327 -36.6785 110.809 -35.861C111.548 -35.4604 112.302 -35.0761 113.057 -34.6836C112.623 -35.5094 112.206 -36.3351 111.804 -37.1527C110.986 -37.537 110.199 -37.9212 109.396 -38.3055ZM104.434 -40.7991C104.868 -40.0878 105.317 -39.3847 105.767 -38.6734C106.377 -38.3218 107.003 -37.9784 107.63 -37.6269C107.228 -38.3382 106.827 -39.0576 106.441 -39.7689C105.767 -40.1041 105.109 -40.4557 104.434 -40.7991ZM99.7136 -43.3335C100.099 -42.753 100.5 -42.1726 100.902 -41.5921C101.367 -41.3059 101.849 -41.028 102.315 -40.7418C101.962 -41.3223 101.608 -41.9028 101.271 -42.4833C100.741 -42.7612 100.227 -43.0474 99.7136 -43.3335ZM95.2497 -45.868C95.5548 -45.451 95.8599 -45.0259 96.1811 -44.6089C96.4701 -44.4209 96.7591 -44.2328 97.0481 -44.0448C96.7751 -44.4617 96.5022 -44.8787 96.2453 -45.2957C95.9081 -45.4837 95.5869 -45.6718 95.2497 -45.868ZM91.107 -48.3779L91.6048 -47.7566L91.7814 -47.6257L91.38 -48.2144L91.107 -48.3779ZM49.1984 463.108C45.5695 458.129 42.1494 453.068 39.0022 447.934C10.5012 401.594 2.52089 349.695 32.0336 306.053C55.6212 271.176 91.3158 235.154 126.127 200.04C171.793 153.97 215.886 109.47 228.876 71.3138C226.515 70.2101 224.203 69.09 221.955 67.9454C207.407 105.423 164.568 148.647 120.283 193.336C85.4871 228.434 49.8086 264.439 26.3012 299.21C-3.05086 342.615 4.92941 394.277 33.302 440.42C38.0388 448.163 43.3697 455.742 49.1984 463.108ZM110.311 519.634L110.183 519.553L110.729 520.248L110.777 520.288L110.311 519.634ZM214.216 60.7345L213.75 61.92C215.966 63.2035 218.23 64.4708 220.574 65.7053C220.767 65.1739 220.96 64.6425 221.136 64.1111C218.76 63.0073 216.464 61.8873 214.216 60.7345ZM215.291 57.7831C215.099 58.3472 214.906 58.9031 214.697 59.4754C216.929 60.6282 219.209 61.7483 221.554 62.852C221.778 62.1571 221.987 61.4621 222.18 60.7754C219.836 59.8025 217.539 58.8051 215.291 57.7831ZM216.415 54.382C216.191 55.1015 215.966 55.8209 215.725 56.5404C217.941 57.5623 220.221 58.5598 222.549 59.5409C222.79 58.6906 222.999 57.8566 223.191 57.0146C220.895 56.1561 218.631 55.2813 216.415 54.382ZM217.475 50.5558C217.25 51.4224 217.026 52.2891 216.785 53.1639C218.968 54.0632 221.2 54.9379 223.48 55.7964C223.705 54.8071 223.898 53.826 224.075 52.845C221.843 52.101 219.643 51.3406 217.475 50.5558ZM218.406 46.3208C218.214 47.3264 218.021 48.332 217.78 49.3458C219.9 50.1225 222.067 50.8746 224.267 51.6186C224.444 50.4986 224.588 49.3785 224.685 48.2666C222.565 47.6371 220.478 46.9912 218.406 46.3208ZM219.113 41.7179C218.985 42.8462 218.84 43.9826 218.647 45.119C220.671 45.7812 222.726 46.4271 224.813 47.0566C224.91 45.8793 224.958 44.7102 224.974 43.5493C223.047 42.9279 221.104 42.3147 219.113 41.7179ZM219.418 37.0741C219.386 38.2105 219.322 39.3469 219.225 40.4997C221.184 41.0884 223.095 41.677 224.974 42.282C224.958 41.162 224.91 40.0501 224.813 38.9463C223.047 38.3168 221.249 37.6873 219.418 37.0741ZM219.354 32.5857C219.418 33.6567 219.45 34.7277 219.45 35.8069C221.233 36.3955 222.967 36.9842 224.669 37.5892C224.556 36.5427 224.396 35.4962 224.219 34.4579C222.629 33.8202 221.008 33.1989 219.354 32.5857ZM218.872 28.2281C219.017 29.2173 219.145 30.2066 219.225 31.2122C220.831 31.7927 222.389 32.3813 223.93 32.9781C223.721 32.0052 223.497 31.0487 223.224 30.0921C221.811 29.4626 220.365 28.8413 218.872 28.2281ZM218.021 24.0421C218.246 24.9333 218.439 25.8326 218.615 26.7401C220.012 27.296 221.361 27.8684 222.694 28.4325C222.405 27.5577 222.1 26.691 221.746 25.8244C220.542 25.2276 219.306 24.6308 218.021 24.0421ZM216.849 20.0606C217.122 20.8291 217.379 21.6058 217.604 22.3906C218.76 22.9057 219.884 23.4289 220.992 23.9522C220.654 23.2 220.285 22.4479 219.9 21.7039C218.904 21.1479 217.893 20.6002 216.849 20.0606ZM215.356 16.3325C215.629 16.9293 215.869 17.5343 216.11 18.1393C216.961 18.5644 217.812 18.9978 218.647 19.4311C218.31 18.8506 217.957 18.2619 217.588 17.6815C216.849 17.2236 216.11 16.774 215.356 16.3325ZM213.67 12.9805C213.862 13.3238 214.039 13.6754 214.232 14.0188C214.681 14.2722 215.131 14.5257 215.58 14.7791C215.324 14.4357 215.067 14.1005 214.794 13.7653C214.408 13.4955 214.039 13.2421 213.67 12.9805ZM135.569 -32.1656C135.922 -30.9229 136.307 -29.672 136.709 -28.4129C137.977 -27.9714 139.278 -27.5381 140.595 -27.1048C140.241 -28.3884 139.92 -29.6556 139.615 -30.9147C138.234 -31.3235 136.901 -31.7404 135.569 -32.1656ZM129.451 -34.1604C129.836 -32.9749 130.254 -31.7813 130.687 -30.5877C131.892 -30.138 133.112 -29.6965 134.348 -29.255C133.963 -30.4732 133.61 -31.6832 133.273 -32.8769C131.972 -33.2938 130.72 -33.7271 129.451 -34.1604ZM123.51 -36.2534C123.927 -35.1333 124.377 -33.9969 124.827 -32.8605C125.951 -32.4026 127.091 -31.9612 128.231 -31.5197C127.829 -32.6725 127.444 -33.817 127.075 -34.9535C125.87 -35.3868 124.698 -35.8201 123.51 -36.2534ZM117.778 -38.4444C118.227 -37.3898 118.677 -36.3188 119.159 -35.2559C120.202 -34.8063 121.246 -34.3566 122.306 -33.9151C121.872 -34.9943 121.471 -36.0735 121.085 -37.1445C119.961 -37.5697 118.87 -38.0111 117.778 -38.4444ZM112.206 -40.7173C112.672 -39.7281 113.137 -38.7388 113.619 -37.7495C114.566 -37.308 115.53 -36.8748 116.493 -36.4333C116.06 -37.4389 115.626 -38.4445 115.225 -39.4419C114.213 -39.8589 113.217 -40.2922 112.206 -40.7173ZM106.843 -43.0719C107.308 -42.1644 107.774 -41.2569 108.272 -40.3494C109.123 -39.9243 109.99 -39.5073 110.857 -39.0822C110.424 -40.006 109.99 -40.9217 109.573 -41.8373C108.641 -42.2461 107.742 -42.6631 106.843 -43.0719ZM101.673 -45.5083C102.138 -44.6907 102.604 -43.8813 103.086 -43.0637C103.824 -42.6631 104.579 -42.2788 105.334 -41.8864C104.9 -42.7122 104.482 -43.5379 104.081 -44.3555C103.246 -44.7316 102.459 -45.1158 101.673 -45.5083ZM96.7109 -48.0018C97.1445 -47.2905 97.5941 -46.5874 98.0437 -45.8762C98.6538 -45.5246 99.28 -45.1812 99.9063 -44.8296C99.5048 -45.5409 99.1034 -46.2522 98.718 -46.9635C98.0276 -47.3069 97.3693 -47.6503 96.7109 -48.0018ZM91.9741 -50.5281C92.3595 -49.9476 92.7609 -49.3671 93.1623 -48.7867C93.628 -48.5005 94.1097 -48.2225 94.5754 -47.9364C94.2221 -48.5169 93.8689 -49.0974 93.5317 -49.6778C93.0018 -49.9558 92.4879 -50.242 91.9741 -50.5281ZM87.5264 -53.0626C87.8314 -52.6456 88.1365 -52.2205 88.4576 -51.8035C88.7467 -51.6155 89.0357 -51.4274 89.3247 -51.2394C89.0518 -51.6563 88.7788 -52.0733 88.5219 -52.4903C88.1847 -52.6865 87.8475 -52.8745 87.5264 -53.0626ZM83.3676 -55.5725L83.8654 -54.9511L84.042 -54.8203L83.6406 -55.4089L83.3676 -55.5725ZM41.475 455.913C37.8301 450.934 34.426 445.865 31.2628 440.739C2.76173 394.4 -5.21855 342.5 24.2941 298.859C47.8818 263.981 83.5763 227.959 118.388 192.845C162.914 147.928 205.946 104.507 220.109 66.997C217.748 65.7625 215.452 64.5035 213.22 63.2281C197.789 100.125 155.849 142.434 112.527 186.141C77.7316 221.239 42.0531 257.245 18.5296 292.016C-10.8224 335.42 -2.84213 387.082 25.5305 433.226C30.2994 440.96 35.6464 448.547 41.475 455.913ZM102.572 512.432L102.443 512.35L102.989 513.045L103.037 513.086L102.572 512.432ZM107.308 515.383L106.73 515.032L107.549 516.119L108.063 516.462L107.308 515.383ZM112.142 518.261L111.146 517.68L112.174 519.119L113.073 519.692L112.142 518.261ZM103.423 510.478L104.45 511.917ZM104.45 511.917L105.35 512.489L104.402 511.058M205.481 56.0171C205.384 56.2297 205.304 56.4423 205.208 56.6548C207.391 58.0856 209.623 59.4836 211.952 60.8653C212.096 60.5056 212.241 60.1459 212.385 59.7861C210.009 58.5598 207.713 57.3007 205.481 56.0171ZM206.476 53.5399L206.011 54.7172C208.226 56.0008 210.49 57.268 212.835 58.5025C213.027 57.9711 213.22 57.4397 213.397 56.9165C211.036 55.8128 208.724 54.6845 206.476 53.5399ZM207.568 50.5885C207.375 51.1526 207.183 51.7086 206.974 52.2809C209.206 53.4336 211.486 54.5537 213.83 55.6574C214.055 54.9625 214.264 54.2757 214.456 53.5808C212.112 52.6079 209.816 51.6105 207.568 50.5885ZM208.676 47.1874C208.451 47.9069 208.226 48.6263 207.986 49.3458C210.201 50.3678 212.481 51.3652 214.81 52.3463C215.051 51.496 215.259 50.6539 215.452 49.82C213.156 48.9615 210.892 48.0868 208.676 47.1874ZM209.752 43.3612C209.527 44.2278 209.302 45.0945 209.061 45.9693C211.245 46.8686 213.477 47.7434 215.757 48.6018C215.982 47.6126 216.175 46.6315 216.351 45.6504C214.103 44.9064 211.903 44.1379 209.752 43.3612ZM210.683 39.1262C210.49 40.1318 210.298 41.1374 210.057 42.1512C212.176 42.9279 214.328 43.6801 216.544 44.424C216.721 43.304 216.865 42.1839 216.977 41.072C214.826 40.4425 212.738 39.7885 210.683 39.1262ZM211.374 34.5152C211.245 35.6434 211.101 36.7798 210.908 37.9162C212.931 38.5785 214.986 39.2243 217.074 39.8538C217.17 38.6766 217.218 37.5074 217.234 36.3465C215.324 35.7333 213.365 35.1202 211.374 34.5152ZM211.679 29.8795C211.647 31.016 211.582 32.1605 211.486 33.3051C213.445 33.8938 215.356 34.4825 217.234 35.0875C217.218 33.9674 217.17 32.8555 217.074 31.7518C215.308 31.1141 213.509 30.4927 211.679 29.8795ZM211.614 25.3829C211.679 26.4539 211.711 27.5249 211.711 28.6041C213.493 29.1928 215.227 29.7814 216.929 30.3864C216.817 29.3318 216.656 28.2935 216.48 27.2551C214.89 26.6256 213.284 26.0043 211.614 25.3829ZM211.149 21.0335C211.293 22.0228 211.422 23.0202 211.502 24.0176C213.108 24.5981 214.665 25.1867 216.207 25.7835C215.998 24.8106 215.773 23.8541 215.5 22.8975C214.071 22.268 212.626 21.6467 211.149 21.0335ZM210.298 16.8394C210.523 17.7305 210.715 18.6298 210.892 19.5373C212.289 20.0933 213.638 20.6574 214.97 21.2297C214.681 20.3549 214.376 19.4883 214.023 18.6217C212.803 18.0249 211.566 17.428 210.298 16.8394ZM209.11 12.8578C209.382 13.6345 209.639 14.403 209.864 15.1879C211.02 15.703 212.144 16.2262 213.252 16.7494C212.915 15.9973 212.546 15.2451 212.16 14.5011C211.165 13.9533 210.153 13.4056 209.11 12.8578ZM207.616 9.12973C207.889 9.72655 208.13 10.3316 208.371 10.9366C209.222 11.3617 210.073 11.795 210.908 12.2283C210.571 11.6478 210.217 11.0592 209.848 10.4787C209.11 10.029 208.371 9.57939 207.616 9.12973ZM205.93 5.7777C206.123 6.12108 206.316 6.47261 206.492 6.81599C206.942 7.06943 207.391 7.3229 207.841 7.57635C207.584 7.23297 207.327 6.89778 207.054 6.56258C206.685 6.30095 206.3 6.03933 205.93 5.7777ZM134.14 -37.4062C134.461 -36.1308 134.798 -34.839 135.167 -33.5391C136.516 -33.1057 137.897 -32.6888 139.278 -32.2637C138.973 -33.5554 138.7 -34.8226 138.443 -36.0817C137.046 -36.5314 135.585 -36.9729 134.14 -37.4062ZM127.829 -39.3601C128.183 -38.1174 128.568 -36.8666 128.969 -35.6075C130.254 -35.166 131.554 -34.7327 132.871 -34.2994C132.518 -35.583 132.197 -36.8502 131.892 -38.1093C130.511 -38.5181 129.178 -38.935 127.829 -39.3601ZM121.712 -41.3632C122.097 -40.1777 122.514 -38.984 122.948 -37.7904C124.152 -37.3407 125.373 -36.8993 126.609 -36.4578C126.224 -37.676 125.87 -38.8859 125.533 -40.0796C124.233 -40.4965 122.98 -40.9299 121.712 -41.3632ZM115.787 -43.4562C116.204 -42.3361 116.654 -41.1997 117.103 -40.0633C118.227 -39.6054 119.367 -39.1639 120.507 -38.7225C120.106 -39.8752 119.721 -41.0198 119.351 -42.1562C118.147 -42.5814 116.959 -43.0228 115.787 -43.4562ZM110.038 -45.639C110.488 -44.5762 110.937 -43.5215 111.419 -42.4505C112.463 -42.0009 113.506 -41.5512 114.566 -41.1097C114.133 -42.1889 113.731 -43.2681 113.346 -44.3391C112.222 -44.7724 111.13 -45.2057 110.038 -45.639ZM104.482 -47.9119C104.948 -46.9226 105.414 -45.9334 105.896 -44.9441C106.843 -44.5026 107.806 -44.0612 108.77 -43.6279C108.336 -44.6335 107.903 -45.639 107.501 -46.6365C106.474 -47.0616 105.478 -47.4868 104.482 -47.9119ZM99.1034 -50.2746C99.5691 -49.3671 100.035 -48.4597 100.532 -47.5522C101.383 -47.127 102.251 -46.71 103.102 -46.2931C102.668 -47.2169 102.235 -48.1326 101.817 -49.0483C100.918 -49.4489 100.019 -49.8577 99.1034 -50.2746ZM93.9331 -52.7028C94.3987 -51.8853 94.8644 -51.0758 95.3461 -50.2583C96.0847 -49.8577 96.8394 -49.4734 97.578 -49.081C97.1445 -49.9067 96.727 -50.7325 96.3256 -51.5501C95.5227 -51.9343 94.7199 -52.3186 93.9331 -52.7028ZM88.9715 -55.1964C89.405 -54.4851 89.8546 -53.782 90.3042 -53.0707C90.9144 -52.7192 91.5406 -52.3758 92.1668 -52.0242C91.7654 -52.7355 91.364 -53.4468 90.9786 -54.1581C90.3042 -54.5015 89.6298 -54.853 88.9715 -55.1964ZM84.2347 -57.7309C84.6201 -57.1504 85.0215 -56.5699 85.4229 -55.9812C85.8886 -55.6951 86.3702 -55.4171 86.8359 -55.1392C86.4826 -55.7196 86.1294 -56.3001 85.7922 -56.8806C85.2784 -57.1585 84.7485 -57.4447 84.2347 -57.7309ZM79.7869 -60.2653C80.092 -59.8484 80.3971 -59.4232 80.7182 -59.0062C81.0072 -58.8182 81.2963 -58.6302 81.5853 -58.4421C81.3123 -58.8591 81.0394 -59.2761 80.7824 -59.693C80.4452 -59.8811 80.108 -60.0691 79.7869 -60.2653ZM75.6442 -62.7752L76.142 -62.1539L76.3186 -62.0312L75.9172 -62.6199L75.6442 -62.7752ZM94.8322 505.237L94.7038 505.155L95.2497 505.85L95.2979 505.891L94.8322 505.237ZM99.569 508.18L98.991 507.829L99.8099 508.916L100.324 509.259L99.569 508.18ZM109.316 513.854L107.983 513.11C108.368 513.691 108.77 514.279 109.171 514.86L110.424 515.612C110.054 515.032 109.685 514.443 109.316 513.854ZM114.341 516.585C113.795 516.291 113.233 516.004 112.688 515.71C113.121 516.389 113.555 517.059 113.988 517.729C114.502 518.032 115.032 518.326 115.546 518.629C115.16 517.942 114.743 517.263 114.341 516.585ZM196.89 50.7929L196.874 50.8419C198.994 52.4198 201.21 53.9814 203.49 55.5102L203.698 54.9788C201.354 53.6053 199.09 52.2073 196.89 50.7929ZM197.757 48.8226C197.677 49.027 197.581 49.2395 197.484 49.4439C199.668 50.8747 201.9 52.2727 204.228 53.6544C204.373 53.3028 204.517 52.9431 204.646 52.5916C202.285 51.357 199.989 50.1061 197.757 48.8226ZM198.737 46.3372L198.271 47.5145C200.487 48.798 202.751 50.0652 205.095 51.2998C205.288 50.7684 205.481 50.2369 205.657 49.7137C203.297 48.61 200.985 47.4899 198.737 46.3372ZM199.829 43.3939C199.636 43.9581 199.443 44.5222 199.234 45.0863C201.466 46.239 203.747 47.3591 206.091 48.4628C206.316 47.7679 206.524 47.0729 206.717 46.3862C204.373 45.4051 202.077 44.4077 199.829 43.3939ZM200.953 39.9929C200.728 40.7123 200.503 41.4318 200.262 42.1512C202.478 43.1732 204.758 44.1706 207.086 45.1517C207.327 44.3014 207.536 43.4593 207.729 42.6254C205.416 41.7669 203.168 40.8922 200.953 39.9929ZM202.012 36.1585C201.788 37.0251 201.563 37.8917 201.322 38.7665C203.506 39.6658 205.738 40.5406 208.018 41.399C208.242 40.4098 208.435 39.4287 208.612 38.4477C206.364 37.7037 204.164 36.9433 202.012 36.1585ZM202.944 31.9316C202.751 32.9372 202.558 33.9429 202.317 34.9566C204.437 35.7333 206.589 36.4855 208.804 37.2295C208.965 36.1094 209.126 34.9893 209.222 33.8774C207.086 33.2397 204.999 32.5939 202.944 31.9316ZM203.634 27.3206C203.506 28.4488 203.361 29.5852 203.168 30.7217C205.192 31.3839 207.247 32.0297 209.334 32.6593C209.431 31.482 209.479 30.3129 209.495 29.1519C207.584 28.5387 205.641 27.9256 203.634 27.3206ZM203.939 22.6768C203.907 23.8132 203.843 24.9578 203.746 26.1024C205.705 26.6911 207.616 27.2797 209.495 27.8847C209.479 26.7646 209.431 25.6527 209.334 24.549C207.568 23.9195 205.786 23.2899 203.939 22.6768ZM203.875 18.1883C203.939 19.2594 203.971 20.3304 203.971 21.4095C205.754 21.9982 207.488 22.5869 209.19 23.1919C209.077 22.1454 208.917 21.0989 208.74 20.0606C207.167 19.431 205.545 18.8015 203.875 18.1883ZM203.409 13.8307C203.554 14.82 203.682 15.8174 203.763 16.8148C205.368 17.3953 206.926 17.984 208.467 18.5808C208.259 17.6079 208.034 16.6513 207.761 15.6948C206.348 15.0652 204.887 14.4439 203.409 13.8307ZM202.558 9.64478C202.783 10.5359 202.976 11.4352 203.152 12.3427C204.549 12.9069 205.898 13.471 207.231 14.0351C206.942 13.1603 206.637 12.2937 206.284 11.4271C205.079 10.8303 203.827 10.2334 202.558 9.64478ZM201.37 5.66325C201.643 6.43176 201.9 7.20845 202.125 7.99332C203.281 8.50838 204.405 9.03159 205.513 9.55484C205.176 8.80268 204.806 8.05051 204.421 7.30653C203.441 6.75058 202.414 6.20285 201.37 5.66325ZM199.893 1.93514C200.166 2.53197 200.407 3.13697 200.648 3.74197C201.499 4.16711 202.35 4.6004 203.185 5.03371C202.847 4.45324 202.494 3.8646 202.125 3.28413C201.37 2.82629 200.631 2.37663 199.893 1.93514ZM198.191 -1.41688C198.383 -1.0735 198.576 -0.721971 198.753 -0.378594C199.202 -0.125148 199.652 0.128321 200.102 0.381767C199.845 0.0383891 199.588 -0.296805 199.315 -0.632007C198.945 -0.901804 198.576 -1.15526 198.191 -1.41688ZM132.968 -42.5405C133.224 -41.2978 133.513 -40.0387 133.819 -38.7633C135.296 -38.3218 136.741 -37.8722 138.186 -37.4225C137.945 -38.6407 137.736 -39.8343 137.528 -41.0116C136.034 -41.5267 134.493 -42.0336 132.968 -42.5405ZM126.416 -44.6089C126.737 -43.3335 127.075 -42.0417 127.444 -40.7418C128.793 -40.3085 130.19 -39.8834 131.571 -39.4664C131.265 -40.7582 130.992 -42.0254 130.736 -43.2845C129.323 -43.7259 127.861 -44.1674 126.416 -44.6089ZM120.09 -46.5547C120.443 -45.312 120.828 -44.0612 121.23 -42.8021C122.514 -42.3606 123.815 -41.9273 125.116 -41.494C124.762 -42.7776 124.441 -44.0448 124.136 -45.3039C122.771 -45.7126 121.439 -46.1378 120.09 -46.5547ZM113.972 -48.5578C114.358 -47.3723 114.775 -46.1786 115.209 -44.985C116.413 -44.5353 117.633 -44.0938 118.87 -43.6524C118.484 -44.8705 118.131 -46.0805 117.794 -47.2742C116.509 -47.6911 115.241 -48.1244 113.972 -48.5578ZM108.047 -50.6507C108.465 -49.5307 108.914 -48.3943 109.364 -47.2578C110.488 -46.8 111.628 -46.3585 112.768 -45.9089C112.366 -47.0616 111.981 -48.2062 111.612 -49.3426C110.408 -49.7759 109.235 -50.2174 108.047 -50.6507ZM102.299 -52.8418C102.748 -51.7871 103.198 -50.7161 103.68 -49.6533C104.723 -49.2036 105.767 -48.754 106.827 -48.3125C106.393 -49.3917 105.992 -50.4709 105.606 -51.5419C104.482 -51.967 103.391 -52.4085 102.299 -52.8418ZM96.743 -55.1147C97.2087 -54.1254 97.6743 -53.1361 98.156 -52.1469C99.1034 -51.7054 100.067 -51.2721 101.03 -50.8306C100.597 -51.8362 100.163 -52.8418 99.7617 -53.8392C98.7502 -54.2562 97.7546 -54.6895 96.743 -55.1147ZM91.38 -57.4692C91.8457 -56.5617 92.3274 -55.6543 92.8091 -54.7468C93.6601 -54.3216 94.5272 -53.9046 95.3782 -53.4877C94.9447 -54.4115 94.5111 -55.3272 94.0937 -56.2429C93.1784 -56.6435 92.2792 -57.0604 91.38 -57.4692ZM86.1936 -59.8974C86.6593 -59.0799 87.1249 -58.2704 87.6066 -57.4529C88.3453 -57.0604 89.0999 -56.668 89.8386 -56.2756C89.405 -57.1013 88.9875 -57.9189 88.5861 -58.7446C87.7833 -59.1289 86.9965 -59.5132 86.1936 -59.8974ZM81.232 -62.3991C81.6656 -61.6879 82.1152 -60.9848 82.5648 -60.2735C83.1749 -59.9219 83.8011 -59.5786 84.4274 -59.227C84.0259 -59.9383 83.6245 -60.6496 83.2391 -61.3609C82.5648 -61.7042 81.8904 -62.0476 81.232 -62.3991ZM76.5113 -64.9255C76.8967 -64.345 77.2981 -63.7645 77.6995 -63.1758C78.1651 -62.8897 78.6469 -62.6117 79.1125 -62.3338C78.7593 -62.9142 78.406 -63.4947 78.0688 -64.0752C77.5389 -64.3531 77.0251 -64.6393 76.5113 -64.9255ZM72.0475 -67.4599C72.3525 -67.0429 72.6576 -66.6178 72.9788 -66.2008C73.2678 -66.0128 73.5568 -65.8248 73.8458 -65.6367C73.5729 -66.0537 73.2999 -66.4707 73.043 -66.8876C72.7058 -67.0838 72.3847 -67.2719 72.0475 -67.4599ZM67.9048 -69.9698L68.4025 -69.3485L68.5792 -69.2177L68.1777 -69.8063L67.9048 -69.9698ZM87.1089 498.034L86.9804 497.953L87.5263 498.647L87.5745 498.688L87.1089 498.034ZM91.8457 500.986L91.2676 500.634L92.0865 501.722L92.6003 502.057L91.8457 500.986ZM96.6627 503.864C96.3416 503.676 96.0044 503.479 95.6832 503.283L96.7109 504.722L97.6101 505.294L96.6627 503.864ZM101.576 506.66L100.243 505.916C100.645 506.496 101.03 507.085 101.432 507.665L102.684 508.417C102.315 507.829 101.945 507.248 101.576 506.66ZM106.618 509.382C106.072 509.088 105.526 508.802 104.964 508.507C105.398 509.178 105.831 509.856 106.265 510.527C106.779 510.829 107.308 511.124 107.822 511.426C107.421 510.747 107.019 510.069 106.618 509.382ZM111.74 512.031C111.098 511.704 110.456 511.385 109.813 511.05C110.086 511.5 110.359 511.949 110.632 512.399L111.21 513.323C111.82 513.658 112.431 513.993 113.041 514.328C112.591 513.56 112.158 512.8 111.74 512.031ZM116.975 514.59C116.236 514.238 115.514 513.887 114.775 513.535C115.257 514.369 115.738 515.203 116.22 516.037C116.911 516.405 117.617 516.765 118.324 517.133C117.858 516.282 117.408 515.44 116.975 514.59ZM122.306 517.059C121.487 516.691 120.668 516.323 119.849 515.947C120.331 516.855 120.828 517.762 121.326 518.67C122.113 519.062 122.884 519.446 123.671 519.831C123.221 518.907 122.771 517.983 122.306 517.059ZM189.151 43.5901L189.135 43.6228C191.254 45.2007 193.47 46.7623 195.75 48.2993L195.959 47.7842C193.615 46.4107 191.351 45.0127 189.151 43.5901ZM190.018 41.628C189.938 41.8324 189.841 42.0449 189.745 42.2493C191.929 43.6801 194.161 45.0781 196.489 46.4598C196.633 46.1083 196.778 45.7485 196.906 45.397C194.546 44.1624 192.25 42.9034 190.018 41.628ZM190.997 39.1426L190.532 40.3199C192.748 41.6035 195.012 42.8707 197.356 44.1052C197.549 43.5738 197.741 43.0424 197.918 42.5191C195.557 41.4154 193.261 40.2872 190.997 39.1426ZM192.089 36.1994C191.896 36.7635 191.704 37.3194 191.495 37.8835C193.727 39.0281 196.007 40.1564 198.351 41.2601C198.576 40.5651 198.785 39.8784 198.978 39.1835C196.633 38.2106 194.337 37.2131 192.089 36.1994ZM193.213 32.7983C192.988 33.5177 192.764 34.2372 192.523 34.9566C194.739 35.9786 197.019 36.976 199.347 37.9571C199.588 37.1068 199.797 36.2647 199.989 35.4308C197.693 34.5724 195.429 33.6894 193.213 32.7983ZM194.273 28.9639C194.048 29.8305 193.823 30.6971 193.582 31.5719C195.766 32.4712 197.998 33.346 200.278 34.1963C200.503 33.2071 200.696 32.226 200.872 31.2449C198.64 30.5091 196.441 29.7406 194.273 28.9639ZM195.204 24.7289C195.012 25.7345 194.819 26.7401 194.578 27.7539C196.698 28.5306 198.865 29.2827 201.065 30.0267C201.242 28.9067 201.386 27.7866 201.482 26.6747C199.363 26.0452 197.259 25.3911 195.204 24.7289ZM195.895 20.1178C195.766 21.246 195.622 22.3825 195.429 23.5271C197.452 24.1893 199.507 24.8352 201.595 25.4647C201.691 24.2874 201.739 23.1183 201.755 21.9573C199.845 21.336 197.902 20.7228 195.895 20.1178ZM196.2 15.4822C196.168 16.6186 196.103 17.7551 196.007 18.9078C197.966 19.4965 199.877 20.0851 201.755 20.6901C201.739 19.57 201.691 18.4582 201.595 17.3544C199.845 16.7167 198.046 16.0954 196.2 15.4822ZM196.152 10.9856C196.216 12.0566 196.248 13.1276 196.248 14.2068C198.03 14.7955 199.764 15.3841 201.466 15.9891C201.354 14.9426 201.193 13.8961 201.017 12.8578C199.427 12.2283 197.805 11.6069 196.152 10.9856ZM195.67 6.63615C195.814 7.6254 195.943 8.61466 196.023 9.62026C197.629 10.2007 199.186 10.7894 200.728 11.3862C200.519 10.4133 200.294 9.45674 200.021 8.50018C198.608 7.87066 197.163 7.24932 195.67 6.63615ZM194.819 2.45019C195.044 3.34134 195.236 4.24066 195.413 5.14816C196.81 5.70411 198.159 6.27642 199.491 6.84054C199.202 5.96574 198.897 5.09913 198.544 4.23251C197.34 3.62751 196.087 3.03884 194.819 2.45019ZM193.647 -1.53951C193.92 -0.771002 194.177 0.00568616 194.401 0.79055C195.557 1.30562 196.681 1.82887 197.789 2.35211C197.452 1.59995 197.083 0.847788 196.698 0.103802C195.702 -0.443967 194.674 -0.991745 193.647 -1.53951ZM192.153 -5.26762C192.426 -4.6708 192.667 -4.06579 192.908 -3.46079C193.759 -3.03566 194.61 -2.60237 195.445 -2.16906C195.108 -2.74953 194.755 -3.33817 194.385 -3.91864C193.647 -4.3683 192.908 -4.81796 192.153 -5.26762ZM190.451 -8.61146C190.644 -8.26808 190.821 -7.92473 191.013 -7.57318C191.463 -7.31973 191.913 -7.06626 192.362 -6.81282C192.105 -7.14802 191.848 -7.49139 191.591 -7.82659C191.222 -8.08821 190.837 -8.34984 190.451 -8.61146ZM132.02 -47.3968C132.229 -46.2522 132.438 -45.0913 132.678 -43.914C134.252 -43.4071 135.777 -42.892 137.287 -42.3769C137.11 -43.4725 136.95 -44.5599 136.805 -45.6227C135.248 -46.2195 133.642 -46.8082 132.02 -47.3968ZM125.228 -49.735C125.485 -48.4923 125.774 -47.2333 126.079 -45.9579C127.572 -45.5164 129.017 -45.0668 130.447 -44.6089C130.206 -45.8271 129.997 -47.0207 129.788 -48.198C128.311 -48.7213 126.77 -49.2282 125.228 -49.735ZM118.677 -51.8035C118.998 -50.5281 119.335 -49.2363 119.704 -47.9364C121.053 -47.5031 122.434 -47.0861 123.831 -46.661C123.526 -47.9527 123.253 -49.22 122.996 -50.479C121.583 -50.9287 120.122 -51.362 118.677 -51.8035ZM112.366 -53.7575C112.72 -52.5148 113.105 -51.2639 113.506 -50.0049C114.791 -49.5634 116.092 -49.1301 117.392 -48.6968C117.039 -49.9803 116.718 -51.2475 116.413 -52.5066C115.048 -52.9154 113.699 -53.3324 112.366 -53.7575ZM106.249 -55.7523C106.634 -54.5669 107.052 -53.3732 107.485 -52.1796C108.689 -51.7299 109.91 -51.2884 111.146 -50.8469C110.761 -52.0651 110.408 -53.2751 110.07 -54.4687C108.77 -54.8857 107.501 -55.3272 106.249 -55.7523ZM100.308 -57.8535C100.725 -56.7334 101.175 -55.597 101.624 -54.4606C102.748 -54.0028 103.888 -53.5613 105.028 -53.1116C104.627 -54.2644 104.242 -55.409 103.872 -56.5454C102.668 -56.9787 101.496 -57.412 100.308 -57.8535ZM94.5593 -60.0364C95.0089 -58.9817 95.4585 -57.9189 95.9402 -56.8479C96.9678 -56.3982 98.0276 -55.9486 99.0874 -55.5071C98.6538 -56.5863 98.2524 -57.6654 97.867 -58.7365C96.7591 -59.1698 95.6672 -59.6031 94.5593 -60.0364ZM89.0036 -62.3092C89.4692 -61.32 89.9349 -60.3307 90.4166 -59.3414C91.364 -58.9 92.3274 -58.4666 93.2908 -58.0252C92.8573 -59.0308 92.4237 -60.0364 92.0223 -61.0338C91.0107 -61.459 90.0152 -61.8841 89.0036 -62.3092ZM83.6406 -64.6638C84.1062 -63.7563 84.5719 -62.8488 85.0696 -61.9413C85.9207 -61.5162 86.7877 -61.0992 87.6387 -60.6823C87.2052 -61.6061 86.7717 -62.5218 86.3542 -63.4375C85.4389 -63.8462 84.5398 -64.255 83.6406 -64.6638ZM78.4542 -67.1001C78.9198 -66.2826 79.3855 -65.4732 79.8672 -64.6556C80.6058 -64.255 81.3605 -63.8708 82.1152 -63.4783C81.6816 -64.3041 81.2641 -65.1298 80.8627 -65.9474C80.0438 -66.3317 79.257 -66.7159 78.4542 -67.1001ZM73.4926 -69.5937C73.9261 -68.8824 74.3757 -68.1793 74.8253 -67.4681C75.4355 -67.1165 76.0617 -66.7731 76.6879 -66.4216C76.2865 -67.1329 75.8851 -67.8442 75.4997 -68.5554C74.8253 -68.8988 74.167 -69.2503 73.4926 -69.5937ZM68.7718 -72.12C69.1572 -71.5396 69.5586 -70.9591 69.9601 -70.3704C70.4257 -70.0843 70.9074 -69.8063 71.3731 -69.5283C71.0198 -70.1088 70.6666 -70.6893 70.3294 -71.2697C69.7995 -71.5559 69.2857 -71.8421 68.7718 -72.12ZM64.3241 -74.6545C64.6292 -74.2375 64.9342 -73.8124 65.2554 -73.3954C65.5444 -73.2074 65.8334 -73.0193 66.1224 -72.8313C65.8495 -73.2483 65.5765 -73.6652 65.3196 -74.0822C64.9824 -74.2784 64.6452 -74.4665 64.3241 -74.6545ZM60.1653 -77.1726L60.6631 -76.5512L60.8397 -76.4204L60.4383 -77.0091L60.1653 -77.1726ZM139.037 -44.7397C139.182 -43.7096 139.342 -42.6631 139.519 -41.6003C152.509 -37.0219 163.267 -32.0347 172.05 -26.6879C163.749 -33.212 152.846 -39.2457 139.037 -44.7397ZM52.6988 -84.2118L52.4419 -84.3672L52.9397 -83.7458L53.1163 -83.6232L52.6988 -84.2118ZM57.5641 -81.2849C57.243 -81.473 56.9058 -81.661 56.5846 -81.8572C56.8897 -81.4403 57.1948 -81.0151 57.5159 -80.5982C57.805 -80.4101 58.094 -80.2221 58.383 -80.0341C58.094 -80.451 57.8371 -80.868 57.5641 -81.2849ZM62.5899 -78.4725C62.0761 -78.7505 61.5623 -79.0366 61.0485 -79.3228C61.4338 -78.7423 61.8352 -78.1618 62.2367 -77.5814C62.7023 -77.2952 63.184 -77.0173 63.6497 -76.7393C63.2804 -77.3116 62.9271 -77.892 62.5899 -78.4725ZM67.7603 -75.7582C67.0859 -76.1016 66.4275 -76.4449 65.7531 -76.7883C66.1867 -76.077 66.6363 -75.3739 67.0859 -74.6626C67.696 -74.3111 68.3222 -73.9677 68.9485 -73.6243C68.547 -74.3356 68.1617 -75.0469 67.7603 -75.7582ZM73.1233 -73.1501C72.3204 -73.5344 71.5176 -73.9187 70.7308 -74.3029C71.1965 -73.4853 71.6621 -72.676 72.1438 -71.8584C72.8824 -71.4578 73.6371 -71.0735 74.3757 -70.6811C73.9422 -71.4987 73.5247 -72.3244 73.1233 -73.1501ZM78.6308 -70.6402C77.7156 -71.049 76.8003 -71.4578 75.9011 -71.8666C76.3668 -70.9591 76.8324 -70.0516 77.3302 -69.1441C78.1812 -68.7189 79.0483 -68.302 79.8993 -67.8768C79.4658 -68.8007 79.0483 -69.7246 78.6308 -70.6402ZM84.2989 -68.2366C83.2713 -68.6536 82.2757 -69.0787 81.2802 -69.512C81.7459 -68.5227 82.2115 -67.5335 82.6932 -66.5442C83.6406 -66.1027 84.604 -65.6694 85.5674 -65.2279C85.1339 -66.2335 84.7003 -67.2392 84.2989 -68.2366ZM90.1276 -65.9392C89.0036 -66.3644 87.9278 -66.7977 86.8198 -67.231C87.2694 -66.1763 87.719 -65.1135 88.2007 -64.0425C89.2284 -63.5928 90.2881 -63.1431 91.3479 -62.7017C90.9304 -63.789 90.529 -64.8682 90.1276 -65.9392ZM96.1489 -63.7481C94.9447 -64.1733 93.7725 -64.6148 92.5843 -65.0481C93.0018 -63.9198 93.4514 -62.7916 93.901 -61.6552C95.0249 -61.1973 96.165 -60.7558 97.305 -60.3143C96.9036 -61.4671 96.5182 -62.6117 96.1489 -63.7481ZM102.331 -61.6633C101.046 -62.0803 99.7778 -62.5218 98.5093 -62.9469C98.8947 -61.7615 99.3121 -60.5678 99.7457 -59.3741C100.95 -58.9245 102.17 -58.483 103.407 -58.0415C103.021 -59.2597 102.668 -60.4697 102.331 -61.6633ZM108.673 -59.7012C107.309 -60.11 105.96 -60.5351 104.627 -60.9521C104.98 -59.7094 105.366 -58.4585 105.767 -57.1994C107.052 -56.758 108.352 -56.3247 109.653 -55.8913C109.316 -57.1749 108.978 -58.4421 108.673 -59.7012ZM115.241 -57.6736C113.844 -58.1233 112.382 -58.5566 110.937 -58.9981C111.259 -57.7227 111.596 -56.4309 111.965 -55.131C113.314 -54.6977 114.695 -54.2807 116.076 -53.8556C115.787 -55.1473 115.498 -56.4227 115.241 -57.6736ZM122.049 -55.4008C120.572 -55.9159 119.03 -56.4227 117.489 -56.9296C117.746 -55.6869 118.035 -54.4279 118.34 -53.1606C119.833 -52.7192 121.262 -52.2695 122.707 -51.8117C122.466 -53.0298 122.258 -54.2235 122.049 -55.4008ZM129.082 -52.8173C127.524 -53.4141 125.919 -54.0109 124.281 -54.5996C124.489 -53.455 124.698 -52.294 124.939 -51.1167C126.513 -50.6098 128.054 -50.0948 129.563 -49.5715C129.387 -50.6752 129.226 -51.7544 129.082 -52.8173ZM136.275 -49.8822C134.653 -50.5772 133 -51.2721 131.282 -51.9507C131.426 -50.9205 131.587 -49.874 131.763 -48.8112C133.401 -48.2307 135.039 -47.6503 136.596 -47.0616C136.5 -48.0182 136.388 -48.9584 136.275 -49.8822ZM164.359 -33.8661C157.535 -39.2293 148.992 -44.2574 138.507 -48.9338C138.603 -48.0345 138.732 -47.1188 138.844 -46.1868C148.751 -42.3361 157.213 -38.2237 164.359 -33.8661ZM176.899 -21.2102C176.642 -21.5535 176.385 -21.8887 176.113 -22.2321C166.864 -28.7563 154.869 -34.7654 139.776 -40.2022C139.984 -39.0576 140.193 -37.8967 140.434 -36.7194C155.046 -31.9939 167.121 -26.8105 176.899 -21.2102ZM179.966 -16.5582C179.629 -17.1387 179.276 -17.7273 178.906 -18.3078C168.967 -24.505 156.346 -30.1952 140.723 -35.3377C140.98 -34.095 141.269 -32.836 141.574 -31.5687C156.844 -27.0149 169.545 -21.995 179.966 -16.5582ZM182.31 -12.0452C181.973 -12.7974 181.604 -13.5414 181.235 -14.2772C170.766 -20.0738 157.759 -25.3961 141.911 -30.2034C142.232 -28.928 142.57 -27.6363 142.939 -26.3363C144.85 -25.7231 146.793 -25.1181 148.768 -24.5295C161.725 -20.6951 172.853 -16.5255 182.31 -12.0452ZM184.029 -7.55681C183.74 -8.43161 183.434 -9.29822 183.081 -10.1648C173.27 -15.013 161.549 -19.5015 147.708 -23.5975C146.214 -24.039 144.785 -24.4968 143.324 -24.9546C143.677 -23.7119 144.063 -22.461 144.464 -21.202C148.35 -19.853 152.348 -18.5613 156.491 -17.3349C166.799 -14.2772 175.952 -11.0151 184.029 -7.55681ZM185.265 -3.01113C185.056 -3.98404 184.831 -4.94061 184.558 -5.89717C176.129 -9.63344 166.462 -13.1408 155.447 -16.4029C151.834 -17.4739 148.366 -18.6021 144.946 -19.7549C145.331 -18.5694 145.749 -17.3758 146.182 -16.174C151.899 -14.0319 157.904 -12.0044 164.23 -10.1321C171.857 -7.87566 178.858 -5.49654 185.265 -3.01113ZM185.988 1.59175C185.875 0.545264 185.715 -0.501205 185.538 -1.53951C178.794 -4.22931 171.36 -6.78831 163.171 -9.20831C157.438 -10.9088 151.979 -12.732 146.744 -14.6533C147.162 -13.525 147.611 -12.3968 148.061 -11.2604C155.495 -8.25173 163.428 -5.46384 171.954 -2.93756C176.899 -1.47412 181.572 0.0383723 185.988 1.59175ZM186.277 6.28457C186.26 5.1645 186.212 4.05263 186.116 2.94892C181.363 1.2402 176.289 -0.419473 170.91 -2.01373C163.042 -4.34379 155.688 -6.90276 148.735 -9.64161C149.185 -8.57877 149.635 -7.51593 150.116 -6.4531C159.124 -2.5206 168.951 1.07669 179.693 4.25702C181.941 4.92743 184.141 5.60599 186.277 6.28457ZM186.132 11.0673C186.228 9.89004 186.277 8.72093 186.293 7.55998C183.82 6.75877 181.283 5.96573 178.65 5.18904C168.646 2.22945 159.445 -1.09805 150.919 -4.7117C151.385 -3.72244 151.85 -2.73316 152.348 -1.74391C162.464 3.00615 173.688 7.3147 186.132 11.0673ZM185.586 15.6294C185.747 14.5093 185.907 13.3892 186.004 12.2774C174.009 8.70459 163.155 4.61675 153.28 0.128311C153.745 1.03581 154.227 1.94329 154.709 2.85079C164.006 7.52727 174.25 11.8195 185.586 15.6294ZM184.815 19.799C185.04 18.8097 185.233 17.8286 185.409 16.8475C174.619 13.2666 164.808 9.24416 155.849 4.89471C156.314 5.71227 156.78 6.52987 157.262 7.33926C165.579 11.8359 174.748 16.0218 184.815 19.799ZM183.884 23.5598C184.125 22.7095 184.334 21.8674 184.526 21.0335C175.133 17.5425 166.527 13.7163 158.626 9.62026C159.06 10.3315 159.51 11.0428 159.959 11.7541C167.233 15.9401 175.181 19.9052 183.884 23.5598ZM182.889 26.8709C183.113 26.176 183.322 25.4811 183.531 24.7943C175.663 21.524 168.389 18.0085 161.661 14.2886C162.047 14.869 162.448 15.4577 162.849 16.0382C168.983 19.8398 175.647 23.4617 182.889 26.8709ZM181.893 29.716C182.086 29.1846 182.278 28.6532 182.455 28.13C176.209 25.2276 170.38 22.1617 164.937 18.9568C165.242 19.382 165.547 19.7989 165.868 20.2241C170.846 23.5107 176.177 26.6829 181.893 29.716ZM181.01 32.0706C181.154 31.7191 181.299 31.3594 181.427 31.0078C176.883 28.6369 172.596 26.1842 168.518 23.6497C168.694 23.8623 168.855 24.0748 169.031 24.2874C172.805 26.9527 176.787 29.5525 181.01 32.0706ZM180.287 33.902L180.496 33.3869C177.975 31.9071 175.534 30.4028 173.19 28.8658C175.454 30.5745 177.831 32.2505 180.287 33.902ZM79.3694 490.84L79.241 490.758L79.7869 491.453L79.8351 491.494L79.3694 490.84ZM84.1062 493.791L83.5282 493.44L84.3471 494.527L84.8609 494.87L84.1062 493.791ZM88.9393 496.669L87.9599 496.089L88.9875 497.527L89.8867 498.1L88.9393 496.669ZM93.8528 499.465L92.52 498.721C92.9215 499.302 93.3068 499.89 93.7083 500.471L94.9607 501.223C94.5914 500.634 94.2221 500.046 93.8528 499.465ZM98.8786 502.188C98.3326 501.893 97.7867 501.607 97.2247 501.313C97.6583 501.983 98.0918 502.662 98.5253 503.332C99.0392 503.635 99.569 503.929 100.083 504.231C99.6814 503.553 99.28 502.866 98.8786 502.188ZM104.001 504.828C103.358 504.501 102.716 504.182 102.074 503.847C102.347 504.297 102.62 504.747 102.893 505.196L103.471 506.12C104.081 506.455 104.691 506.79 105.301 507.126C104.852 506.365 104.418 505.597 104.001 504.828ZM109.235 507.395C108.497 507.044 107.774 506.692 107.036 506.341C107.517 507.175 107.999 508.009 108.481 508.843C109.171 509.21 109.878 509.57 110.584 509.938C110.118 509.088 109.669 508.238 109.235 507.395ZM114.582 509.864C113.763 509.497 112.944 509.129 112.126 508.753C112.607 509.66 113.105 510.568 113.603 511.475C114.39 511.868 115.16 512.252 115.947 512.636C115.481 511.712 115.032 510.788 114.582 509.864ZM120.042 512.244C119.142 511.868 118.243 511.483 117.344 511.091C117.826 512.072 118.324 513.045 118.837 514.026C119.704 514.435 120.555 514.835 121.423 515.228C120.957 514.23 120.491 513.241 120.042 512.244ZM125.629 514.516C124.65 514.132 123.687 513.74 122.707 513.347C123.189 514.394 123.687 515.44 124.184 516.479C125.116 516.896 126.063 517.304 126.994 517.713C126.545 516.65 126.079 515.587 125.629 514.516ZM131.362 516.683C130.302 516.299 129.258 515.906 128.215 515.514C128.696 516.626 129.178 517.738 129.676 518.841C130.687 519.267 131.699 519.675 132.711 520.084C132.245 518.956 131.795 517.819 131.362 516.683ZM127.524 513.903C128.6 514.328 129.692 514.737 130.768 515.146C117.119 478.323 117.762 440.167 140.306 406.818C163.893 371.941 199.588 335.919 234.399 300.805C303.476 231.107 368.988 164.999 328.557 119.019C356.609 164.868 294.179 227.87 228.538 294.092C193.743 329.191 158.064 365.196 134.557 399.967C110.889 434.992 111.515 475.38 127.524 513.903ZM121.936 511.647C122.948 512.072 123.96 512.481 124.971 512.889C109.38 474.554 109.027 434.46 132.582 399.624C156.17 364.746 191.864 328.725 226.676 293.61C295.769 223.913 361.265 157.796 320.834 111.824C348.885 157.673 286.456 220.675 220.815 286.906C186.02 322.004 150.341 358.01 126.818 392.781C102.138 429.293 103.872 471.643 121.936 511.647ZM116.461 509.284C117.392 509.701 118.34 510.11 119.271 510.519C101.705 470.744 100.292 428.729 124.843 392.429C148.43 357.552 184.125 321.53 218.936 286.415C286.665 218.091 350.94 153.209 315.358 107.368C314.989 107.107 314.604 106.837 314.218 106.575C339.396 152.245 277.801 214.412 213.076 279.703C178.28 314.801 142.602 350.807 119.094 385.578C93.4032 423.57 96.3095 467.874 116.461 509.284ZM111.114 506.823C111.981 507.232 112.832 507.633 113.699 508.025C94.1257 466.877 91.6048 422.965 117.119 385.227C140.707 350.349 176.402 314.327 211.213 279.213C277.03 212.802 339.62 149.653 310.413 104.065C309.69 103.616 308.952 103.166 308.197 102.717C328.702 148.059 268.52 208.788 205.368 272.5C170.573 307.599 134.894 343.604 111.387 378.375C84.6843 417.823 88.843 464.081 111.114 506.823ZM105.879 504.272C106.666 504.665 107.437 505.049 108.224 505.433C86.6111 462.969 82.9019 417.177 109.38 378.032C132.967 343.155 168.662 307.133 203.474 272.018C267.38 207.537 328.252 146.129 304.986 100.893C303.99 100.337 302.978 99.7896 301.935 99.25C317.687 144.167 259.063 203.326 197.613 265.314C162.817 300.412 127.139 336.418 103.615 371.189C75.9814 412.059 81.4407 460.255 105.879 504.272ZM100.741 501.64C101.432 502.008 102.138 502.367 102.845 502.735C79.1767 459.028 74.2312 411.372 101.64 370.837C125.228 335.96 160.923 299.938 195.734 264.824C257.73 202.28 316.836 142.622 299.109 97.8193C297.888 97.2143 296.652 96.6257 295.367 96.0288C306.495 140.431 249.509 197.938 189.873 258.111C155.078 293.209 119.399 329.215 95.892 363.986C67.2946 406.279 74.1348 456.412 100.741 501.64ZM95.7314 498.925C96.3416 499.261 96.9518 499.596 97.5619 499.931C71.8066 455.039 65.5765 405.527 93.9009 363.635C117.489 328.757 153.183 292.735 187.995 257.621C248.048 197.039 305.403 139.172 292.83 94.8761C291.417 94.2465 289.972 93.6252 288.479 93.012C295.207 136.809 239.923 192.616 182.134 250.909C147.338 286.007 111.66 322.012 88.1526 356.783C58.8005 400.188 66.7808 451.85 95.1534 497.993L95.7314 498.925ZM90.802 496.129L92.3595 497.029C64.5007 451.016 56.9379 399.673 86.1615 356.44C109.749 321.563 145.444 285.541 180.255 250.426C238.365 191.815 293.922 135.738 286.086 92.0391C284.497 91.4096 282.875 90.78 281.221 90.1669C283.855 133.277 230.289 187.335 174.394 243.714C139.599 278.812 103.92 314.818 80.3971 349.589C51.045 392.993 59.0253 444.655 87.3979 490.799C88.5219 492.589 89.6459 494.363 90.802 496.129ZM85.9688 493.268L87.2212 494.02C86.6111 493.055 86.0009 492.091 85.4068 491.126C56.9057 444.786 48.9255 392.887 78.4381 349.245C102.026 314.368 137.72 278.346 172.532 243.232C228.651 186.607 282.426 132.353 278.941 89.333C277.191 88.7034 275.393 88.0821 273.546 87.4608C272.422 129.811 220.622 182.069 166.671 236.519C131.876 271.618 96.1971 307.623 72.6897 342.394C43.3376 385.799 51.3179 437.461 79.6905 483.604C81.6816 486.858 83.7851 490.079 85.9688 493.268ZM81.2481 490.325L82.1473 490.897C80.6058 488.591 79.1125 486.261 77.6834 483.923C49.1823 437.583 41.202 385.684 70.7147 342.043C94.3024 307.165 129.997 271.143 164.808 236.029C218.952 181.407 270.897 128.993 271.378 86.7413C269.468 86.1199 267.525 85.5067 265.518 84.9017C260.957 126.393 210.956 176.845 158.948 229.317C124.152 264.415 88.4737 300.42 64.9503 335.191C35.5982 378.596 43.5785 430.258 71.9511 476.402C74.8413 481.111 77.9403 485.754 81.2481 490.325ZM76.6076 487.324L77.1214 487.668C74.6005 484.062 72.208 480.416 69.944 476.737C41.4429 430.397 33.4626 378.498 62.9753 334.856C86.5629 299.979 122.258 263.957 157.069 228.842C209.206 176.24 259.304 125.674 263.366 84.2722C261.246 83.6427 259.143 82.9886 257.088 82.3264C249.525 122.91 201.306 171.572 151.208 222.122C116.413 257.22 80.7342 293.226 57.2108 327.997C27.8587 371.401 35.839 423.063 64.2116 469.207C68.0011 475.355 72.1438 481.405 76.6076 487.324ZM72.0474 484.258L72.0956 484.299C68.5631 479.451 65.2714 474.529 62.1885 469.534C33.6874 423.194 25.7071 371.295 55.2198 327.654C78.8074 292.776 114.502 256.754 149.313 221.64C199.556 170.959 247.903 122.166 255 81.6397C252.752 80.8957 250.552 80.1353 248.401 79.3505C238.446 119.076 191.816 166.127 143.453 214.927C108.657 250.026 72.9787 286.031 49.4714 320.802C20.1193 364.207 28.0996 415.869 56.4722 462.012C61.1448 469.599 66.3633 477.031 72.0474 484.258ZM181.427 36.3956L181.411 36.4283C183.531 38.0062 185.747 39.5677 188.027 41.1047L188.235 40.5897C185.891 39.208 183.627 37.8099 181.427 36.3956ZM182.278 34.4252C182.198 34.6296 182.102 34.8422 182.005 35.0466C184.189 36.4773 186.421 37.8754 188.749 39.257C188.894 38.8973 189.038 38.5458 189.167 38.1942C186.806 36.9679 184.51 35.7088 182.278 34.4252ZM183.274 31.9561L182.808 33.1253C185.024 34.4089 187.288 35.6761 189.632 36.9106C189.825 36.3792 190.018 35.856 190.194 35.3245C187.818 34.2208 185.522 33.1007 183.274 31.9561ZM184.366 28.9966C184.173 29.5607 183.98 30.1166 183.772 30.6889C186.004 31.8335 188.284 32.9618 190.628 34.0655C190.853 33.3706 191.062 32.6756 191.254 31.9889C188.894 31.016 186.598 30.0185 184.366 28.9966ZM185.474 25.5955C185.249 26.315 185.024 27.0344 184.783 27.7621C186.999 28.784 189.279 29.7815 191.607 30.7625C191.848 29.9123 192.057 29.0701 192.25 28.2362C189.954 27.3696 187.69 26.4948 185.474 25.5955ZM186.533 21.7693C186.309 22.6359 186.084 23.5025 185.843 24.3773C188.027 25.2767 190.259 26.1514 192.539 27.0099C192.764 26.0206 192.956 25.0395 193.133 24.0666C190.901 23.3063 188.701 22.546 186.533 21.7693ZM187.481 17.5343C187.288 18.5399 187.095 19.5455 186.855 20.5593C188.974 21.336 191.126 22.0963 193.342 22.8321C193.518 21.7121 193.663 20.592 193.759 19.4801C191.624 18.8424 189.536 18.1965 187.481 17.5343ZM188.171 12.9232C188.043 14.0515 187.898 15.1879 187.706 16.3243C189.729 16.9865 191.784 17.6324 193.871 18.2619C193.968 17.0846 194.016 15.9155 194.032 14.7546C192.121 14.1414 190.162 13.5282 188.171 12.9232ZM188.476 8.27946C188.444 9.41588 188.38 10.5605 188.284 11.7051C190.243 12.2937 192.153 12.8823 194.032 13.4873C194.016 12.3673 193.968 11.2554 193.871 10.1517C192.105 9.52216 190.307 8.90081 188.476 8.27946ZM188.412 3.79099C188.476 4.86201 188.508 5.93305 188.508 7.01224C190.291 7.60088 192.025 8.18952 193.727 8.79452C193.615 7.74803 193.454 6.70156 193.277 5.66325C191.688 5.03373 190.066 4.40417 188.412 3.79099ZM187.93 -0.566618C188.075 0.422637 188.203 1.42007 188.284 2.4175C189.889 2.99797 191.447 3.58663 192.988 4.18345C192.78 3.21055 192.555 2.25397 192.282 1.29742C190.869 0.667891 189.424 0.054732 187.93 -0.566618ZM187.079 -4.75257C187.304 -3.86143 187.497 -2.9621 187.674 -2.0546C189.054 -1.49866 190.419 -0.934523 191.752 -0.362227C191.463 -1.23702 191.158 -2.10363 190.805 -2.97025C189.6 -3.56708 188.364 -4.16393 187.079 -4.75257ZM185.907 -8.7341C186.18 -7.95741 186.437 -7.1889 186.662 -6.40403C187.818 -5.88897 188.942 -5.36572 190.05 -4.84247C189.713 -5.59463 189.343 -6.3468 188.958 -7.09078C187.963 -7.64673 186.951 -8.1945 185.907 -8.7341ZM184.414 -12.454C184.687 -11.8572 184.912 -11.2604 185.153 -10.6554C186.004 -10.2302 186.855 -9.79695 187.69 -9.36364C187.352 -9.94411 186.999 -10.5246 186.63 -11.105C185.907 -11.5547 185.169 -12.0044 184.414 -12.454ZM182.728 -15.8142C182.921 -15.4709 183.113 -15.1193 183.29 -14.7678C183.74 -14.5143 184.189 -14.2608 184.639 -14.0074C184.382 -14.3508 184.125 -14.686 183.852 -15.0294C183.483 -15.291 183.097 -15.5526 182.728 -15.8142ZM-4.76347e-05 -210.403L0.497694 -211L2.77781 -211C1.5896 -209.561 0.658287 -208.457 -4.77537e-05 -207.681L-4.76347e-05 -210.403V-210.403ZM-5.06652e-05 -141.074C4.01418 -133.683 8.92761 -126.218 14.949 -118.885C8.57435 -127.796 3.7091 -136.79 -5.04712e-05 -145.513L-5.02428e-05 -150.737C4.81703 -138.073 12.0106 -124.673 22.6884 -111.69C10.2925 -129.031 3.56459 -146.707 -4.97489e-05 -162.036L-4.92751e-05 -172.877C2.98654 -153.46 10.8866 -128.262 30.4118 -104.487C-2.61733 -150.68 4.62435 -199.268 4.65647 -199.489L4.6725 -199.587L4.75278 -199.669C4.81701 -199.734 8.42983 -203.895 14.114 -210.992L16.3781 -210.992C10.8705 -204.1 7.22558 -199.865 6.74387 -199.309C6.39062 -196.75 -0.41752 -144.221 38.1673 -97.2765C5.13818 -143.477 12.3638 -192.065 12.3959 -192.286L12.412 -192.384L12.4923 -192.466C12.5725 -192.556 18.6742 -199.579 27.5216 -210.992L29.7856 -210.992C21.1951 -199.889 15.1256 -192.842 14.4994 -192.114C14.1461 -189.572 7.43433 -137.664 45.2324 -90.9322L45.409 -90.8096C12.974 -136.789 20.1354 -184.871 20.1675 -185.083L20.1835 -185.181L20.2638 -185.263C20.3602 -185.369 29.047 -195.384 40.7846 -210.984L43.0326 -210.984C31.6321 -195.785 23.0095 -185.786 22.2549 -184.911C21.9177 -182.442 15.5592 -133.413 49.8247 -87.7846C50.1137 -87.5965 50.4027 -87.4085 50.6917 -87.2205C21.0988 -132.064 27.8748 -177.668 27.9069 -177.88L27.923 -177.978L28.0033 -178.06C28.1157 -178.183 39.5321 -191.329 53.8549 -210.984L56.0869 -210.984C42.1334 -191.795 30.8614 -178.722 29.9943 -177.709C29.6572 -175.313 23.6839 -129.153 54.5614 -84.7514C55.0271 -84.4653 55.5088 -84.1873 55.9745 -83.9093C29.2397 -127.469 35.6303 -170.473 35.6624 -170.678L35.6785 -170.776L35.7588 -170.858C35.8712 -170.997 50.1137 -187.389 66.7808 -210.975L68.9966 -210.975C52.747 -187.912 38.7293 -171.634 37.7498 -170.506C37.4287 -168.192 31.8248 -124.869 59.4428 -81.8409C60.0529 -81.4893 60.6791 -81.1459 61.2893 -80.8026C37.3645 -122.924 43.3698 -163.287 43.3858 -163.483L43.4019 -163.581L43.4822 -163.663C43.6106 -163.81 60.7916 -183.595 79.4979 -210.984L81.7137 -210.984C63.4409 -184.167 46.549 -164.562 45.4732 -163.311C45.1681 -161.071 39.9175 -120.569 64.4686 -79.0285C65.2072 -78.636 65.9619 -78.2436 66.7005 -77.8511C45.4893 -118.394 51.0931 -156.084 51.1253 -156.28L51.1413 -156.378L51.2216 -156.46C51.3661 -156.624 71.6139 -179.932 92.0705 -210.975L94.2703 -210.975C74.2633 -180.529 54.3848 -157.458 53.2127 -156.109C52.9076 -153.95 48.0423 -116.244 69.671 -76.3223C70.522 -75.8972 71.3891 -75.4802 72.2401 -75.0633C53.6462 -113.889 58.8326 -148.898 58.8647 -149.086L58.8808 -149.184L58.9611 -149.266C59.1056 -149.437 82.5327 -176.409 104.466 -210.975L106.57 -210.975C85.1018 -177.03 62.1403 -150.369 60.8718 -148.914C60.5828 -146.837 56.0708 -111.895 74.9538 -73.7224C75.9011 -73.2809 76.8645 -72.8395 77.828 -72.4062C61.7068 -109.377 66.4918 -141.711 66.5239 -141.883L66.5399 -141.981L66.6202 -142.063C66.7808 -142.251 93.5156 -173.016 116.589 -210.975L118.757 -210.975C96.1329 -173.678 69.944 -143.273 68.5952 -141.711C68.3223 -139.725 64.1635 -107.521 80.4613 -71.2207C81.4889 -70.7711 82.5487 -70.3214 83.6085 -69.8799C69.8155 -104.855 74.2151 -134.508 74.2312 -134.68L74.2473 -134.778L74.3275 -134.86C74.5042 -135.056 104.659 -169.778 128.584 -210.967L130.736 -210.967C107.276 -170.457 77.7477 -136.168 76.3186 -134.508C76.0617 -132.612 72.2562 -103.114 86.1455 -68.8252C87.2695 -68.3674 88.4095 -67.9259 89.5495 -67.4844C77.9564 -100.334 81.9546 -127.322 81.9707 -127.486L81.9867 -127.584L82.067 -127.665C82.2436 -127.878 115.995 -166.712 140.402 -210.975L142.537 -210.975C118.58 -167.407 85.5674 -129.072 84.0581 -127.314C83.8012 -125.507 80.3489 -98.6991 91.9902 -66.5442C93.1944 -66.0946 94.4148 -65.6531 95.6512 -65.2116C86.0812 -95.7886 89.694 -120.127 89.7101 -120.283L89.7262 -120.381L89.8064 -120.463C89.9991 -120.683 127.46 -163.81 151.995 -210.967L154.131 -210.967C130.045 -164.505 93.4032 -121.959 91.8136 -120.111C91.5727 -118.394 88.4577 -94.2434 98.0437 -64.3695C99.3282 -63.928 100.629 -63.4947 101.929 -63.0614C94.2382 -91.2265 97.4496 -112.941 97.4656 -113.088L97.4817 -113.186L97.5619 -113.268C97.7707 -113.505 139.101 -161.096 163.379 -210.967L165.499 -210.967C141.67 -161.791 101.239 -114.862 99.5691 -112.917C99.3443 -111.298 96.5664 -89.7713 104.258 -62.3092C105.606 -61.8759 106.987 -61.459 108.384 -61.0338C102.395 -86.6482 105.205 -105.755 105.237 -105.894L105.253 -105.992L105.334 -106.074C105.542 -106.319 150.951 -158.586 174.523 -210.975L176.578 -210.975C153.424 -159.305 109.043 -107.79 107.276 -105.747C107.068 -104.234 104.627 -85.291 110.6 -60.3552C112.093 -59.9137 113.523 -59.4641 114.968 -59.0062C110.456 -81.988 112.912 -98.5846 112.928 -98.7073L112.944 -98.8054L113.025 -98.8871C113.25 -99.1406 162.898 -156.297 185.313 -210.984L187.417 -210.984C165.386 -156.983 116.878 -100.669 115.032 -98.5356C114.839 -97.1294 112.72 -80.6472 117.232 -58.3032C118.805 -57.7963 120.331 -57.2812 121.856 -56.7579C118.58 -77.1317 120.684 -91.39 120.7 -91.5045L120.716 -91.6026L120.796 -91.6844C121.021 -91.9542 175.133 -154.236 195.879 -210.984L197.95 -210.984C177.558 -154.907 124.714 -93.5648 122.787 -91.3328C122.611 -90.0329 120.78 -75.8154 124.072 -55.9894C125.71 -55.409 127.348 -54.8285 128.921 -54.2398C126.625 -72.0873 128.423 -84.2036 128.439 -84.3099L128.456 -84.408L128.536 -84.4898C128.777 -84.7678 187.561 -152.446 206.075 -210.984L208.13 -210.984C189.921 -153.092 132.55 -86.4683 130.527 -84.1383C130.366 -82.9364 128.793 -70.7792 131.137 -53.3732C132.855 -52.7028 134.541 -52.0242 136.179 -51.3457C134.67 -66.8058 136.179 -77.009 136.195 -77.1153L136.211 -77.2135L136.291 -77.2952C136.548 -77.5814 200.278 -150.95 215.902 -210.992L217.957 -210.992C202.574 -151.579 140.386 -79.3718 138.298 -76.9437C138.138 -75.8481 136.821 -65.5304 138.411 -50.4055C154.998 -43.2191 166.992 -35.1824 175.069 -26.4181C177.959 -24.0798 180.528 -21.6843 182.792 -19.2316C185.682 -16.8934 188.252 -14.4979 190.516 -12.0452C193.406 -9.707 195.975 -7.30336 198.255 -4.85066C201.145 -2.51242 203.714 -0.116948 205.978 2.34393C208.869 4.68217 211.438 7.08581 213.718 9.53851C216.608 11.8767 219.193 14.2804 221.457 16.7413C224.348 19.0795 226.917 21.4832 229.197 23.9359C232.087 26.2741 234.656 28.6777 236.936 31.1304C239.826 33.4687 242.412 35.8723 244.676 38.3332C247.566 40.6714 250.135 43.0751 252.415 45.5278C255.305 47.866 257.874 50.2696 260.155 52.7223C263.045 55.0606 265.63 57.4642 267.894 59.9251C270.784 62.2633 273.353 64.667 275.633 67.1197C278.524 69.4579 281.093 71.8616 283.373 74.3143C286.263 76.6525 288.848 79.0562 291.112 81.517C294.003 83.8553 296.572 86.2589 298.852 88.7116C301.742 91.0499 304.327 93.4535 306.591 95.9144C309.481 98.2608 312.067 100.664 314.331 103.125C317.253 105.488 319.838 107.908 322.118 110.393C379.377 156.905 309.851 227.077 236.278 301.295C201.482 336.393 165.804 372.399 142.281 407.17C119.64 440.658 119.223 479.059 133.24 516.053C137.319 517.525 141.413 518.874 145.492 520.1C146.375 520.37 147.435 520.665 148.639 521L144.352 521C140.851 519.953 137.351 518.809 133.851 517.574C134.3 518.719 134.75 519.855 135.232 521L131.571 521L130.447 520.55L130.655 521L128.488 521L127.765 519.438C126.866 519.062 125.967 518.678 125.067 518.285C125.517 519.193 125.983 520.092 126.448 521L123.044 521L122.482 520.73L122.643 521L120.443 521C120.106 520.411 119.769 519.814 119.448 519.226C118.805 518.899 118.163 518.58 117.521 518.245C117.794 518.694 118.067 519.144 118.34 519.594L118.934 520.517L119.801 521L116.959 521L115.722 520.305L116.188 521L104.547 521C103.856 520.346 103.166 519.683 102.475 519.029C99.842 516.675 97.2729 514.271 94.752 511.835C92.1186 509.48 89.5495 507.085 87.0286 504.64C84.3952 502.277 81.8101 499.874 79.2891 497.429C76.6558 495.075 74.0867 492.671 71.5657 490.235C68.9324 487.88 66.3633 485.476 63.8263 483.04C61.193 480.677 58.6078 478.274 56.0708 475.829C53.4535 473.475 50.8844 471.079 48.3474 468.651C45.714 466.288 43.1289 463.885 40.5919 461.44C25.1291 447.566 11.3361 432.212 -7.5016e-05 416.008L-7.48745e-05 412.77C3.2916 417.627 6.80804 422.418 10.5333 427.119C6.90439 422.14 3.48426 417.079 0.337097 411.953L-7.48145e-05 411.397L-7.4654e-05 407.726C0.770659 409.034 1.54137 410.334 2.34422 411.634C7.09707 419.376 12.4441 426.963 18.2728 434.33C14.6439 429.351 11.2237 424.29 8.07657 419.156C5.17027 414.422 2.47269 409.631 -7.45257e-05 404.791L-7.43342e-05 400.409C2.98652 406.622 6.35848 412.779 10.0837 418.837C14.8365 426.579 20.1835 434.158 25.9961 441.516C22.3672 436.545 18.9632 431.484 15.8 426.35C9.44141 416.024 4.12656 405.42 -7.40844e-05 394.694L-7.38278e-05 388.824C4.3353 401.439 10.3727 413.923 17.8071 426.031C22.576 433.774 27.9069 441.361 33.7356 448.727C30.1067 443.748 26.6866 438.687 23.5394 433.553C11.8499 414.544 3.61274 394.596 -7.32088e-05 374.664L-7.13044e-05 331.095C2.68144 317.491 8.06053 304.238 16.5707 291.672C40.1584 256.795 75.8529 220.773 110.664 185.659C154.243 141.69 196.392 99.1601 211.438 62.198C209.093 60.8244 206.829 59.4264 204.63 58.0038C188.557 94.4346 147.355 136.008 104.804 178.946C70.0082 214.045 34.3297 250.05 10.8223 284.821C6.37452 291.386 2.79381 298.148 0.0159633 305.04L0.0159635 300.085C2.47268 294.779 5.39504 289.571 8.84728 284.47C32.4349 249.592 68.1296 213.57 102.941 178.456C145.781 135.231 187.24 93.3963 202.928 56.8756C200.631 55.3549 198.416 53.8179 196.28 52.2482C179.757 88.3274 139.069 129.377 97.0802 171.744C62.2848 206.842 26.6063 242.847 3.09893 277.618C2.02311 279.213 0.995438 280.815 0.0159642 282.434L0.0159644 278.927C0.369217 278.371 0.738535 277.823 1.10784 277.267C24.6955 242.39 60.3901 206.368 95.2016 171.253C137.528 128.56 178.489 87.2073 194.61 51.0136C192.378 49.3376 190.21 47.6289 188.139 45.912C171.376 81.7868 131.009 122.518 89.3568 164.549C56.7934 197.399 23.4431 231.05 0.0320377 263.736L0.0320378 260.646C23.3788 228.728 55.8139 196.017 87.4782 164.059C129.499 121.66 170.204 80.585 186.55 44.5712C184.382 42.7153 182.294 40.8431 180.303 38.9463C163.476 74.7639 123.189 115.413 81.6334 157.354C52.5061 186.738 22.7526 216.767 0.0320385 246.167L0.0320386 243.264C22.5278 214.6 51.4303 185.438 79.7548 156.864C121.744 114.506 162.416 73.4722 178.778 37.4747C178.409 37.115 178.055 36.7635 177.686 36.4037C174.94 34.0246 172.355 31.6128 169.915 29.1683C167.201 26.8055 164.632 24.41 162.191 21.9818C159.461 19.6191 156.892 17.2154 154.452 14.7873C151.722 12.4163 149.153 10.0127 146.712 7.58453C143.999 5.22176 141.43 2.82627 139.005 0.406275C136.275 -1.96467 133.69 -4.37647 131.249 -6.81282C128.536 -9.17559 125.951 -11.5792 123.526 -14.0074C120.796 -16.3783 118.227 -18.7738 115.787 -21.2102C113.073 -23.5729 110.488 -25.9766 108.063 -28.4048C105.334 -30.7757 102.764 -33.1712 100.324 -35.6075C97.5941 -37.9785 95.025 -40.3821 92.5682 -42.8184C89.8546 -45.1812 87.2855 -47.5767 84.8448 -49.9967C82.1152 -52.3676 79.53 -54.7794 77.0893 -57.2076C74.3757 -59.5704 71.7906 -61.974 69.366 -64.4022C66.6363 -66.7731 64.0672 -69.1686 61.6265 -71.6049C58.9129 -73.9677 56.3438 -76.3632 53.9031 -78.7832C51.1734 -81.1541 48.6043 -83.5496 46.1637 -85.9859C43.434 -88.3569 40.8649 -90.7605 38.4242 -93.1887C35.7106 -95.5515 33.1254 -97.9551 30.7008 -100.383C17.1809 -112.132 7.27372 -124.747 0.0159826 -137.247L0.0159828 -141.074L-5.06652e-05 -141.074Z" fill="white"/>
</mask>
<g mask="url(#mask0_42_144)">
<path d="M379.378 -211L379.378 521L-10.8054 521L-10.8054 -211L379.378 -211Z" fill="white" fill-opacity="0.12"/>
</g>
</svg>
